<?xml version="1.0" encoding="UTF-8" standalone="no"?>
<!-- Created with Inkscape (http://www.inkscape.org/) -->

<svg
   xmlns:dc="http://purl.org/dc/elements/1.1/"
   xmlns:cc="http://creativecommons.org/ns#"
   xmlns:rdf="http://www.w3.org/1999/02/22-rdf-syntax-ns#"
   xmlns:svg="http://www.w3.org/2000/svg"
   xmlns="http://www.w3.org/2000/svg"
   xmlns:sodipodi="http://sodipodi.sourceforge.net/DTD/sodipodi-0.dtd"
   xmlns:inkscape="http://www.inkscape.org/namespaces/inkscape"
   id="svg2997"
   version="1.1"
   inkscape:version="0.48.4 r9939"
   width="326"
   height="283"
   sodipodi:docname="adsr_w_leds.dxf">
  <metadata
     id="metadata3003">
    <rdf:RDF>
      <cc:Work
         rdf:about="">
        <dc:format>image/svg+xml</dc:format>
        <dc:type
           rdf:resource="http://purl.org/dc/dcmitype/StillImage" />
        <dc:title></dc:title>
      </cc:Work>
    </rdf:RDF>
  </metadata>
  <defs
     id="defs3001" />
  <sodipodi:namedview
     pagecolor="#ffffff"
     bordercolor="#666666"
     borderopacity="1"
     objecttolerance="10"
     gridtolerance="10"
     guidetolerance="10"
     inkscape:pageopacity="0"
     inkscape:pageshadow="2"
     inkscape:window-width="1196"
     inkscape:window-height="966"
     id="namedview2999"
     showgrid="false"
     inkscape:zoom="1.8450287"
     inkscape:cx="163"
     inkscape:cy="120.6268"
     inkscape:window-x="0"
     inkscape:window-y="0"
     inkscape:window-maximized="0"
     inkscape:current-layer="svg2997" />
  <path
     style="fill:#000000"
     d="m 255.42917,277.56948 15.77159,0.27551 0.49576,-1.29193 c 0.27267,-0.71055 0.37545,-12.98338 0.2284,-27.27294 l -0.26735,-25.98102 -6.75,-4.97289 -6.75,-4.9729 0,-18.09914 0,-18.09915 8.75,-5.93052 8.75,-5.93052 0.31606,-4.42527 0.31606,-4.42528 1.43394,-2.04723 1.43394,-2.04723 0,-4.70607 0,-4.70606 -1.57143,-1.57143 c -0.86429,-0.86429 -1.79387,-1.57143 -2.06574,-1.57143 -0.27188,0 -1.36473,0.46583 -2.42857,1.03518 l -1.93426,1.03519 0,6.4058 0,6.4058 1,0.61803 1,0.61803 0,3.76047 0,3.76046 -8.75,5.93052 -8.75,5.93052 -0.27114,19.75008 -0.27114,19.75007 7.02114,5.1228 7.02114,5.12279 0,24.87713 0,24.87713 -13.5,0 -13.5,0 0,-21.81291 0,-21.81291 -3,-2.87418 -3,-2.87418 0,-3.61291 0,-3.61291 1.06049,-1.06049 1.06048,-1.06049 -0.31048,-4.88951 -0.31049,-4.88951 -2.5,0 -2.5,0 0.30704,10 0.30704,10 2.92323,3.02726 2.92323,3.02725 0.26973,22.47275 0.26973,22.47274 15.7716,0.2755 z m -20.2716,-64.7755 c -0.55,0 -1,-0.45 -1,-1 0,-0.55 0.45,-1 1,-1 0.55,0 1,0.45 1,1 0,0.55 -0.45,1 -1,1 z m 40,-68 c -0.55,0 -1,-0.45 -1,-1 0,-0.55 0.45,-1 1,-1 0.55,0 1,0.45 1,1 0,0.55 -0.45,1 -1,1 z m -131.72063,132.75524 91.77938,0.25524 0.49577,-1.29196 c 0.27267,-0.71058 0.37195,-8.92544 0.22062,-18.25524 l -0.27514,-16.96328 -5.50001,-0.5 -5.5,-0.5 -4.25,-2.43414 -4.25,-2.43414 0,-8.75684 0,-8.75685 1,-0.61803 1,-0.61803 0,-4.8913 0,-4.89129 -1.2634,-0.79969 c -0.69487,-0.43983 -1.71795,-2.14969 -2.27353,-3.79969 l -1.01011,-3 -23.76254,-0.26818 -23.76256,-0.26819 -1.70081,2.9635 -1.70082,2.9635 -1.80665,0.47245 -1.80666,0.47246 0.29355,7.83223 0.29354,7.83223 2.68274,0.30993 2.68274,0.30993 1.19742,-2.23739 1.19742,-2.2374 -0.50942,-6.57253 c -0.28016,-3.6149 -0.30124,-7.13504 -0.0468,-7.82254 l 0.46258,-1.25 21.85765,0 21.85764,0 0.50499,0.81709 c 0.27774,0.4494 0.82416,8.37467 1.21426,17.61173 l 0.70928,16.79464 5.29671,3.38827 5.29672,3.38827 4.54803,0 4.54805,0 0,15.5 0,15.5 -37.06739,0 -37.0674,0 0.61854,-1.94885 0.61854,-1.94885 -2.05115,-2.05115 c -1.12814,-1.12813 -2.50116,-2.05115 -3.05116,-2.05115 -0.55,0 -1.92302,0.92302 -3.05115,2.05115 l -2.05115,2.05115 0.61854,1.94885 0.61854,1.94885 -40.56739,0 -40.5674,0 0,-1.46482 0,-1.46481 -1.93425,-1.03519 -1.93426,-1.03518 -5.87462,0 -5.87461,0 -1.7861,1.30603 -1.78609,1.30603 0.34497,2.44397 0.34496,2.44397 91.77938,0.25524 z m -88.27938,-2.75524 c -0.55,0 -1,-0.45 -1,-1 0,-0.55 0.45,-1 1,-1 0.55001,0 1,0.45 1,1 0,0.55 -0.44999,1 -1,1 z m 100.00001,-2 c -0.55,0 -1,-0.45 -1,-1 0,-0.55 0.45,-1 1,-1 0.55,0 1,0.45 1,1 0,0.55 -0.45,1 -1,1 z m 8,-54 c -0.55,0 -1,-0.45 -1,-1 0,-0.55 0.45,-1 1,-1 0.55,0 1,0.45 1,1 0,0.55 -0.45,1 -1,1 z m 51.99999,-6 c -0.55,0 -1,-0.45 -1,-1 0,-0.55 0.45,-1 1,-1 0.55,0 1,0.45 1,1 0,0.55 -0.45,1 -1,1 z m 82.50001,64 21.5,0 0,-28.5 0,-28.5 -21.5,0 -21.5,0 0,28.5 0,28.5 21.5,0 z m -130.5,-6 c 0.55,0 1.9,-0.9 3,-2 1.1,-1.1 2,-2.45 2,-3 0,-0.55 -0.92302,-1.92302 -2.05115,-3.05115 l -2.05115,-2.05115 -1.72533,0.54759 -1.72532,0.5476 -3.72353,-3.06925 -3.72353,-3.06925 0,-6.92719 0,-6.9272 6.94098,0 6.94099,0 0.61803,1 0.61803,1 7.4058,0 7.4058,0 1.0316,-1.92756 1.0316,-1.92756 -0.60672,-1.58107 -0.60671,-1.58107 -2.36636,-0.59392 -2.36635,-0.59392 -4.77334,0.62356 c -2.62534,0.34296 -8.48584,0.88528 -13.02334,1.20517 l -8.25,0.5816 0,-0.90261 c 0,-0.49644 0.54,-1.44262 1.2,-2.10262 l 1.2,-1.2 5.29815,0 5.29817,0 2.97152,-4.75 2.97153,-4.75 1.09302,-5.21058 1.09303,-5.21059 -0.31271,-3.78941 -0.31271,-3.78942 -2.5,0 -2.5,0 -0.0246,8 -0.0246,8 -2.32418,3.75 -2.32419,3.75 -3.93641,0 -3.93641,0 -2.39776,-1.57107 -2.39775,-1.57107 -1.94941,1.04329 c -1.07218,0.57381 -2.23756,1.7942 -2.58975,2.71197 l -0.64033,1.66869 1.52268,2.32391 1.52269,2.32391 0,8.96824 0,8.96823 -4.38694,3.59476 -4.38693,3.59477 -31.86307,-0.41381 c -17.52468,-0.22759 -32.53806,-0.42165 -33.36306,-0.43124 -0.825,-0.01 -9.88389,0.18294 -20.13086,0.42784 l -18.63086,0.44527 -0.63871,-3.40456 -0.63869,-3.40455 -1.79605,-1.62542 -1.79606,-1.62541 -3.18439,-0.63687 -3.18437,-0.63688 0,-4.91018 0,-4.91019 1.61501,-2.46481 1.61502,-2.46482 -1.61502,-2.46482 -1.61501,-2.46481 0,-3.07037 0,-3.07037 1.5227,-2.32391 1.52267,-2.32391 -0.64033,-1.66869 c -0.35219,-0.91777 -1.45479,-2.10457 -2.45025,-2.63731 l -1.80991,-0.96864 -1.60021,0.61407 c -0.88012,0.33773 -2.0697,1.49129 -2.64351,2.56347 l -1.04329,1.94941 1.57107,2.39775 1.57106,2.39776 0,3.07037 0,3.07037 -1.615,2.46481 -1.61501,2.46482 1.61501,2.46482 1.615,2.46481 0,5.83582 0,5.83582 -1.25,2.69156 -1.25,2.69157 -3.76355,0.008 -3.76355,0.008 0.43977,-68.75 0.43978,-68.75 0.64532,-8.68205 0.64533,-8.68207 -1.1388,-2.12787 -1.13881,-2.127878 -2.68274,0.30993 -2.68275,0.30953 -0.28679,10.413218 -0.28678,10.41322 1.03678,1.03678 1.03679,1.03679 0,69.8 0,69.8 6,0 6,0 0,1.34501 0,1.34501 1.75,1.57708 c 0.9625,0.86739 2.94937,1.87635 4.41526,2.24213 l 2.66523,0.66504 3.43494,-1.62998 3.43493,-1.62998 19.39982,0.44522 c 10.6699,0.24487 20.07482,0.43748 20.89982,0.42802 0.825,-0.009 16.28913,-0.2027 34.36474,-0.42944 l 32.86474,-0.41224 4.18418,-3.42863 4.18419,-3.42862 3.95108,3.89593 c 2.17309,2.14277 4.73858,4.82283 5.70107,5.95569 0.96251,1.13287 2.20001,2.05976 2.75001,2.05976 z m 0,-4 c -0.55,0 -1,-0.45 -1,-1 0,-0.55 0.45,-1 1,-1 0.55,0 1,0.45 1,1 0,0.55 -0.45,1 -1,1 z m -88,-2 c -0.55,0 -1,-0.45 -1,-1 0,-0.55 0.45,-1 1,-1 0.55,0 1,0.45 1,1 0,0.55 -0.45,1 -1,1 z m -48.00001,-4 c -0.55,0 -1,-0.45 -1,-1 0,-0.55 0.45,-1 1,-1 0.55001,0 1,0.45 1,1 0,0.55 -0.44999,1 -1,1 z m 154.00001,-20 c -0.55,0 -1,-0.45 -1,-1 0,-0.55 0.45,-1 1,-1 0.55,0 1,0.45 1,1 0,0.55 -0.45,1 -1,1 z m -158.00001,-4 c -0.55,0 -1,-0.45 -1,-1 0,-0.55 0.45,-1 1,-1 0.55001,0 1,0.45 1,1 0,0.55 -0.44999,1 -1,1 z m 128.00001,-4 c -0.55,0 -1,-0.45 -1,-1 0,-0.55 0.45,-1 1,-1 0.55,0 1,0.45 1,1 0,0.55 -0.45,1 -1,1 z m -128.00001,-12 c -0.55,0 -1,-0.45 -1,-1 0,-0.55 0.45,-1 1,-1 0.55001,0 1,0.45 1,1 0,0.55 -0.44999,1 -1,1 z m 148.00001,-8 c -0.55,0 -1,-0.45 -1,-1 0,-0.55 0.45,-1 1,-1 0.55,0 1,0.45 1,1 0,0.55 -0.45,1 -1,1 z m -162.00001,-104 c -0.55,0 -1,-0.45 -1,-1 0,-0.55 0.45,-1 1,-1 0.55001,0 1,0.45 1,1 0,0.55 -0.44999,1 -1,1 z m 244.19286,160.79104 7.69286,0.29103 1.05714,-1.97529 1.05715,-1.9753 0,-6.84323 0,-6.84324 -1.46604,-2.09306 -1.46604,-2.09306 -0.28396,-11.36515 -0.28396,-11.36515 -5.75,-3.94977 -5.75,-3.94977 0,-22.12905 0,-22.12905 5.75,-3.94502 5.75,-3.94502 0.31606,-4.41573 0.31606,-4.41573 1.43394,-2.04723 1.43394,-2.04723 0,-4.70607 0,-4.70606 -1.57143,-1.57143 c -0.86429,-0.86429 -1.79387,-1.57143 -2.06574,-1.57143 -0.27188,0 -1.36473,0.46583 -2.42857,1.03518 l -1.93426,1.03519 0,6.4058 0,6.4058 1,0.61803 1,0.61803 0,3.75551 0,3.75551 -5.75,3.95222 -5.75,3.95221 0,23.96652 0,23.96652 5.75,3.95221 5.75,3.95222 0,10.75551 0,10.75551 -1,0.61803 -1,0.61803 0,5.94099 0,5.94098 -2.4349,0 c -1.3392,0 -3.61907,0.45022 -5.06638,1.00049 l -2.63147,1.00048 0.31637,2.74952 0.31638,2.74951 7.69285,0.29104 z m -0.19285,-2.79104 c -0.55,0 -1,-0.45 -1,-1 0,-0.55 0.45,-1 1,-1 0.55,0 1,0.45 1,1 0,0.55 -0.45,1 -1,1 z m 6,-122 c -0.55,0 -1,-0.45 -1,-1 0,-0.55 0.45,-1 1,-1 0.55,0 1,0.45 1,1 0,0.55 -0.45,1 -1,1 z m -50.94849,124.78182 10.55151,0.28182 0.69849,-0.69849 c 0.38417,-0.38417 0.69848,-1.73265 0.69848,-2.99663 l 0,-2.29815 -1.93425,-1.03519 -1.93426,-1.03518 -7.37865,0 -7.37865,0 -2.76909,-2.89031 -2.76908,-2.8903 1.08199,-0.66871 1.082,-0.66871 0,-2.52785 0,-2.52785 -3,-1.13237 -3,-1.13238 0.0318,-5.53076 0.0318,-5.53076 1.46819,-1.94113 1.4682,-1.94113 0,-4.08636 0,-4.08637 -1.62035,-2.31337 -1.62035,-2.31337 1.18718,-2.21826 1.18717,-2.21825 -0.31683,-4.44088 -0.31681,-4.44088 -2.5,0 -2.5,0 0,7.16098 0,7.16097 -0.75,0.75569 -0.75,0.75569 0,6.27432 0,6.27432 1,0.61803 1,0.61803 0,6.32436 0,6.32435 -2.0736,0.54226 -2.0736,0.54225 0.3236,2.82438 0.3236,2.82437 2.09515,0.29926 2.09516,0.29926 3.58112,3.70074 3.58112,3.70074 0.32371,3 0.32373,3 10.55152,0.28182 z m 4.94848,-2.78182 c -0.55,0 -1,-0.45 -1,-1 0,-0.55 0.45,-1 1,-1 0.55,0 1,0.45 1,1 0,0.55 -0.45,1 -1,1 z m -10,0 c -0.55,0 -1,-0.45 -1,-1 0,-0.55 0.45,-1 1,-1 0.55,0 1,0.45 1,1 0,0.55 -0.45,1 -1,1 z m -11.99999,-14 c -0.55,0 -1,-0.45 -1,-1 0,-0.55 0.45,-1 1,-1 0.55,0 1,0.45 1,1 0,0.55 -0.45,1 -1,1 z m 0,-24 c -0.55,0 -1,-0.45 -1,-1 0,-0.55 0.45,-1 1,-1 0.55,0 1,0.45 1,1 0,0.55 -0.45,1 -1,1 z m 0,-16 c -0.55,0 -1,-0.45 -1,-1 0,-0.55 0.45,-1 1,-1 0.55,0 1,0.45 1,1 0,0.55 -0.45,1 -1,1 z m -97.60765,45 33.27432,0 0.66666,-0.66667 c 0.36667,-0.36666 0.66667,-2.11852 0.66667,-3.89301 l 0,-3.22634 1.57244,-0.60341 1.57244,-0.6034 1.85512,0.99283 1.85512,0.99283 1.60022,-0.61407 c 0.88012,-0.33773 2.05355,-1.46112 2.60762,-2.49641 l 1.00741,-1.88235 -1.00741,-1.88235 c -0.55407,-1.03529 -1.7275,-2.15868 -2.60762,-2.49641 l -1.60022,-0.61407 -1.92756,1.0316 -1.92756,1.0316 -1.92756,-1.0316 -1.92756,-1.0316 -1.60022,0.61407 c -0.88012,0.33773 -2.0697,1.49129 -2.64351,2.56347 l -1.04329,1.94941 1.57107,2.39775 1.57106,2.39776 0,2.03519 0,2.03518 -31.5,0 -31.5,0 0,-13.3 0,-13.3 1.0605,-1.06049 1.06049,-1.06049 -0.31049,-4.88951 -0.3105,-4.88951 -2.5,0 -2.5,0 0.37196,20 c 0.20457,11 0.56863,20.3375 0.80901,20.75 l 0.43707,0.75 33.27432,0 z m 41.60765,-11 c -0.55,0 -1,-0.45 -1,-1 0,-0.55 0.45,-1 1,-1 0.55,0 1,0.45 1,1 0,0.55 -0.45,1 -1,1 z m -8,0 c -0.55,0 -1,-0.45 -1,-1 0,-0.55 0.45,-1 1,-1 0.55,0 1,0.45 1,1 0,0.55 -0.45,1 -1,1 z m -66.00001,-24 c -0.55,0 -1,-0.45 -1,-1 0,-0.55 0.45,-1 1,-1 0.55001,0 1,0.45 1,1 0,0.55 -0.44999,1 -1,1 z m 158.30111,33 5.36556,0 0.66667,-0.66667 c 0.36666,-0.36666 0.66666,-1.70083 0.66666,-2.96481 l 0,-2.29815 -2.13326,-1.14169 -2.13325,-1.14168 -3.93038,0.62849 -3.93039,0.6285 -5.93636,-3.66413 -5.93636,-3.66413 0,-11.65787 0,-11.65786 1.06049,-1.06049 1.06049,-1.06049 -0.31049,-4.88951 -0.31049,-4.88951 -2.25447,-0.32014 -2.25446,-0.32013 -0.45459,1.32013 c -0.25002,0.72608 -0.1355,9.19038 0.25448,18.80956 l 0.70905,17.48942 6.46558,4.22719 6.46557,4.22719 0.7522,2.03339 0.7522,2.03339 5.36556,0 z m 1.69889,-3 c -0.55,0 -1,-0.45 -1,-1 0,-0.55 0.45,-1 1,-1 0.55,0 1,0.45 1,1 0,0.55 -0.45,1 -1,1 z m -20,-40 c -0.55,0 -1,-0.45 -1,-1 0,-0.55 0.45,-1 1,-1 0.55,0 1,0.45 1,1 0,0.55 -0.45,1 -1,1 z m -120.94847,36.78182 10.55151,0.28182 0.69849,-0.69849 c 0.38416,-0.38417 0.69848,-1.75813 0.69848,-3.05326 l 0,-2.35477 -2.5,-1.13907 -2.5,-1.13908 0,-4.83949 0,-4.83948 -1.75,-1.75 -1.75,-1.75 0,-6 0,-6 -2.5,0 -2.5,0 0.36295,12.75 0.36295,12.75 -2.54785,0 c -1.40132,0 -3.73201,0.45022 -5.17933,1.00049 l -2.63147,1.00048 0.31637,2.74952 0.31637,2.74951 10.55153,0.28182 z m 6.94848,-2.78182 c -0.55,0 -1,-0.45 -1,-1 0,-0.55 0.45,-1 1,-1 0.55,0 1,0.45 1,1 0,0.55 -0.45,1 -1,1 z m -12,0 c -0.55,0 -1,-0.45 -1,-1 0,-0.55 0.45,-1 1,-1 0.55,0 1,0.45 1,1 0,0.55 -0.45,1 -1,1 z m 8,-6 c -0.55,0 -1,-0.45 -1,-1 0,-0.55 0.45,-1 1,-1 0.55,0 1,0.45 1,1 0,0.55 -0.45,1 -1,1 z m 0,-6 c -0.55,0 -1,-0.45 -1,-1 0,-0.55 0.45,-1 1,-1 0.55,0 1,0.45 1,1 0,0.55 -0.45,1 -1,1 z m -2,-12 c -0.55,0 -1,-0.45 -1,-1 0,-0.55 0.45,-1 1,-1 0.55,0 1,0.45 1,1 0,0.55 -0.45,1 -1,1 z m -29.80888,26 c 0.44488,0 1.74366,-0.93479 2.88619,-2.07732 l 2.07732,-2.07732 -0.57732,-1.50447 c -0.31752,-0.82745 -0.57732,-3.46052 -0.57732,-5.85125 l 0,-4.34678 -1.63497,-1.63498 -1.63497,-1.63497 1.20179,-2.24558 1.2018,-2.24557 -0.31682,-4.44088 -0.31683,-4.44088 -2.5,0 -2.5,0 0,7 0,7 -0.67545,1.0339 c -0.37151,0.56864 -0.81309,4.09857 -0.98131,7.84428 l -0.30586,6.81038 1.92244,1.40572 c 1.05734,0.77315 2.28643,1.40572 2.73131,1.40572 z m -0.19113,-4 c -0.55,0 -1,-0.45 -1,-1 0,-0.55 0.45,-1 1,-1 0.55001,0 1,0.45 1,1 0,0.55 -0.44999,1 -1,1 z m 0,-10 c -0.55,0 -1,-0.45 -1,-1 0,-0.55 0.45,-1 1,-1 0.55001,0 1,0.45 1,1 0,0.55 -0.44999,1 -1,1 z m 0,-12 c -0.55,0 -1,-0.45 -1,-1 0,-0.55 0.45,-1 1,-1 0.55001,0 1,0.45 1,1 0,0.55 -0.44999,1 -1,1 z m 195.18275,24.80993 2.68274,0.30993 1.06726,-1.99419 1.06726,-1.99419 0,-6.63148 0,-6.63148 -1.03519,-1.93426 -1.03518,-1.93426 -1.80983,0 -1.80983,0 -1.65499,-1.82874 -1.65498,-1.82874 0,-28.01627 0,-28.01627 1.82874,-1.65499 1.82874,-1.65499 1.63607,0 1.63608,0 1.03518,-1.93426 1.03519,-1.93426 0,-3.49431 0,-3.49431 -1.57143,-1.57143 c -0.86429,-0.86429 -1.79387,-1.57143 -2.06574,-1.57143 -0.27188,0 -1.36473,0.46583 -2.42857,1.03518 l -1.93426,1.03519 0,5.30983 0,5.30982 -2,1.80998 -2,1.80998 0,29.19002 0,29.19002 1.96527,1.77856 1.96528,1.77855 0.28472,9.62643 0.28473,9.62644 2.68274,0.30993 z m 0.81726,-6.80993 c -0.55,0 -1,-0.45 -1,-1 0,-0.55 0.45,-1 1,-1 0.55,0 1,0.45 1,1 0,0.55 -0.45,1 -1,1 z m 0,-86 c -0.55,0 -1,-0.45 -1,-1 0,-0.55 0.45,-1 1,-1 0.55,0 1,0.45 1,1 0,0.55 -0.45,1 -1,1 z m -123.80887,84 c 0.44488,0 1.70887,-0.9 2.80887,-2 1.1,-1.1 2,-2.45 2,-3 0,-0.55 -0.9,-1.9 -2,-3 -1.1,-1.1 -2.45,-2 -3,-2 -0.55,0 -1.9,0.9 -3,2 l -2,2 -9.31291,0 -9.31291,0 -2.62908,-2.75 -2.62908,-2.75 -0.30801,-5.5 -0.30801,-5.5 -2.5,0 -2.5,0 -0.30533,4.76326 -0.30534,4.76326 5.30534,4.94862 5.30533,4.94862 10,0.0699 10,0.0699 1.94113,1.46819 c 1.06762,0.80751 2.30512,1.4682 2.75,1.4682 z m -0.19113,-4 c -0.55,0 -1,-0.45 -1,-1 0,-0.55 0.45,-1 1,-1 0.55,0 1,0.45 1,1 0,0.55 -0.45,1 -1,1 z m -32,-12 c -0.55,0 -1,-0.45 -1,-1 0,-0.55 0.45,-1 1,-1 0.55,0 1,0.45 1,1 0,0.55 -0.45,1 -1,1 z m -20.75845,14.81561 2.74153,0.3156 1.13537,-2.49186 1.13537,-2.49187 -0.75819,-2.82374 -0.7582,-2.82374 0.20833,-4.80471 0.20832,-4.8047 -0.98856,-1.1953 c -0.54371,-0.65741 -1.14088,-2.54529 -1.32704,-4.19529 l -0.33849,-3 -17,0 -17,0 -0.30338,5.86666 -0.30339,5.86666 -1.51769,2.31628 -1.51768,2.31628 1.04329,1.94941 c 0.57381,1.07218 1.76339,2.22574 2.64351,2.56347 l 1.60022,0.61407 1.80991,-0.96864 c 0.99545,-0.53274 2.08624,-1.68873 2.42397,-2.56885 l 0.61407,-1.60022 -1.0316,-1.92756 c -0.56738,-1.06016 -1.46575,-1.92756 -1.99641,-1.92756 l -0.96482,0 0,-5 0,-5 14.48726,0 14.48723,0 -0.73117,7.75 c -0.40216,4.2625 -0.73391,10 -0.73724,12.75 l -0.006,5 2.74155,0.31561 z m 0.75844,-2.81561 c -0.55,0 -1,-0.45 -1,-1 0,-0.55 0.45,-1 1,-1 0.55001,0 1.00001,0.45 1.00001,1 0,0.55 -0.45,1 -1.00001,1 z m -32,-8 c -0.55,0 -1,-0.45 -1,-1 0,-0.55 0.45,-1 1,-1 0.55001,0 1,0.45 1,1 0,0.55 -0.44999,1 -1,1 z m 32,-4 c -0.55,0 -1,-0.45 -1,-1 0,-0.55 0.45,-1 1,-1 0.55001,0 1.00001,0.45 1.00001,1 0,0.55 -0.45,1 -1.00001,1 z m 149.18274,12.80993 2.68274,0.30993 1.06726,-1.99419 1.06726,-1.99419 0,-3.84323 0,-3.84324 -1.65389,-2.36126 -1.65389,-2.36126 1.15389,-1.84768 1.15389,-1.84767 0,-4.45455 0,-4.45456 -1,-0.61803 -1,-0.61803 0,-8.88197 0,-8.88197 1,-0.61803 1,-0.61803 0,-4.45456 0,-4.45455 -1.22772,-1.96591 -1.22773,-1.96591 1.72773,-2.92481 1.72772,-2.92481 0,-5.87321 0,-5.8732 -1.44826,-2.06768 -1.44827,-2.06769 -0.30173,-6.40482 -0.30174,-6.40482 -31.99999,-0.26208 -32,-0.26207 -1.72776,-2.23793 -1.72777,-2.23792 -0.0222,-40.250008 -0.0223,-40.25 6.88337,0 6.88337,0 0.5437,2.07911 0.5437,2.07911 2.32293,-0.32911 2.32293,-0.32911 0,-5.5 0,-5.5 -2.5,0 -2.5,0 -0.31439,2.2106 -0.31439,2.2106 -8.18561,0.2894 -8.18561,0.2894 -0.26108,41.89108 -0.26109,41.891078 2.56198,3.35893 2.56197,3.35892 31.44911,0 31.4491,0 0,5.44098 0,5.44099 -1,0.61803 -1,0.61803 0,8.38197 0,8.38197 0.81647,0.5046 0.81646,0.5046 -0.14377,24.30442 -0.14377,24.30441 -0.72672,1.61197 -0.72671,1.61197 0.30402,5.88803 0.30402,5.88803 2.68274,0.30993 z m 0.81726,-6.80993 c -0.55,0 -1,-0.45 -1,-1 0,-0.55 0.45,-1 1,-1 0.55,0 1,0.45 1,1 0,0.55 -0.45,1 -1,1 z m 0,-16 c -0.55,0 -1,-0.45 -1,-1 0,-0.55 0.45,-1 1,-1 0.55,0 1,0.45 1,1 0,0.55 -0.45,1 -1,1 z m 0,-30 c -0.55,0 -1,-0.45 -1,-1 0,-0.55 0.45,-1 1,-1 0.55,0 1,0.45 1,1 0,0.55 -0.45,1 -1,1 z m 0,-18 c -0.55,0 -1,-0.45 -1,-1 0,-0.55 0.45,-1 1,-1 0.55,0 1,0.45 1,1 0,0.55 -0.45,1 -1,1 z M 175.15757,52.793972 c -0.55,0 -1,-0.45 -1,-1 0,-0.55 0.45,-1 1,-1 0.55,0 1,0.45 1,1 0,0.55 -0.45,1 -1,1 z m 8,180.000008 c 0.55,0 1.93479,-0.93479 3.07732,-2.07732 l 2.07731,-2.07732 -0.71875,-1.67268 c -0.3953,-0.91997 -0.93655,-2.94679 -1.20276,-4.50404 l -0.48401,-2.83135 1.19226,-2.22777 1.19227,-2.22776 -0.31683,-4.44088 -0.31681,-4.44088 -2.5,0 -2.5,0 0,8 0,8 -2.25,2.25 c -1.2375,1.2375 -2.25,2.7 -2.25,3.25 0,0.55 0.9,1.9 2,3 1.1,1.1 2.45,2 3,2 z m 0,-4 c -0.55,0 -1,-0.45 -1,-1 0,-0.55 0.45,-1 1,-1 0.55,0 1,0.45 1,1 0,0.55 -0.45,1 -1,1 z m 2,-16 c -0.55,0 -1,-0.45 -1,-1 0,-0.55 0.45,-1 1,-1 0.55,0 1,0.45 1,1 0,0.55 -0.45,1 -1,1 z m -70.17707,14.82911 2.32293,0.32911 0.53804,-2.05745 0.53804,-2.05746 18.63903,-0.27165 18.63903,-0.27166 0.27815,-11 0.27815,-11 -8.02815,-7.97654 -8.02815,-7.97654 -0.0222,-5.02346 -0.0223,-5.02346 -1.95553,-2.5 -1.95553,-2.5 -0.0222,-21.32143 -0.0222,-21.32143 1.5,-1.5 c 0.825,-0.825 1.5,-1.88571 1.5,-2.35714 0,-0.47143 -0.70714,-1.56429 -1.57143,-2.42857 -0.86435,-0.86429 -1.95721,-1.57143 -2.42864,-1.57143 -0.47143,0 -1.59017,0.73302 -2.48608,1.62894 l -1.62894,1.62894 0.80751,1.62106 0.80751,1.62106 0.28726,22.39795 0.28725,22.39795 1.96275,2.75642 1.96274,2.75642 0,4.86909 0,4.86909 8,7.95308 8,7.95308 0,9.27346 0,9.27346 -17.43045,0 -17.43045,0 -0.31955,-2.25 -0.31955,-2.25 -2.5,0 -2.5,0 0,5.5 0,5.5 2.32293,0.32911 z m 0.17707,-4.82911 c -0.55,0 -1,-0.45 -1,-1 0,-0.55 0.45,-1 1,-1 0.55,0 1,0.45 1,1 0,0.55 -0.45,1 -1,1 z m 20,-98 c -0.55,0 -1,-0.45 -1,-1 0,-0.55 0.45,-1 1,-1 0.55,0 1,0.45 1,1 0,0.55 -0.45,1 -1,1 z m -30.45885,102.79218 2.04114,0.29219 0.70886,-0.70885 0.70885,-0.70885 0,-4.63334 0,-4.63333 -0.94509,-0.95 -0.9451,-0.95 -0.3049,-6 -0.30491,-6 -37.08745,-0.26201 -37.08745,-0.26201 -1.3537,-2.5294 -1.3537,-2.52941 1.77542,-3.00552 1.77539,-3.00551 -1.6073,-2.45307 -1.60733,-2.45307 1.59414,-2.43294 1.59411,-2.43294 -1.04329,-1.94941 c -0.57381,-1.07218 -1.76339,-2.22574 -2.64351,-2.56347 l -1.60022,-0.61407 -1.80991,0.96864 c -0.99545,0.53274 -2.09805,1.71954 -2.45024,2.63731 l -0.64033,1.66869 1.54574,2.35909 1.54574,2.3591 -1.60732,2.45307 -1.60731,2.45307 1.79987,3.04693 1.79987,3.04693 -1.71885,2.90977 -1.71885,2.90978 0.62089,1.618 c 0.34149,0.88991 1.49812,2.08749 2.5703,2.6613 l 1.94941,1.04329 2.39775,-1.57107 2.39776,-1.57107 35.61354,0 35.61354,0 -0.32836,10.75 -0.32835,10.75 2.04115,0.29218 z m 0.45885,-4.79218 c -0.55,0 -1,-0.45 -1,-1 0,-0.55 0.45,-1 1,-1 0.55,0 1,0.45 1,1 0,0.55 -0.45,1 -1,1 z m -78.00001,-18 c -0.55,0 -1,-0.45 -1,-1 0,-0.55 0.45,-1 1,-1 0.55001,0 1,0.45 1,1 0,0.55 -0.44999,1 -1,1 z m 0,-12 c -0.55,0 -1,-0.45 -1,-1 0,-0.55 0.45,-1 1,-1 0.55001,0 1,0.45 1,1 0,0.55 -0.44999,1 -1,1 z m 0,-10 c -0.55,0 -1,-0.45 -1,-1 0,-0.55 0.45,-1 1,-1 0.55001,0 1,0.45 1,1 0,0.55 -0.44999,1 -1,1 z m 265.94099,32 25.05902,0 0,-5.5 0,-5.5 -1,0 -1,0 0,4.5 0,4.5 -23.44099,0 -23.44098,0 -0.61803,1 -0.61804,1 25.05902,0 z m 18.05902,-4 1,0 0,-5 0,-5 2.5,0 2.5,0 0,-1 0,-1 -5.94099,0 -5.94098,0 -0.61803,1 -0.61804,1 3.05902,0 3.05902,0 0,5 0,5 1,0 z m -18.04991,0 1.04991,0 0,-3 0,-3 2.5,0 2.5,0 0,-1 0,-1 -2.5,0 -2.5,0 0,-1 0,-1 3.5,0 3.5,0 0,-1.0575 0,-1.0575 -4.25,0.3075 -4.25,0.3075 -0.29991,5.75 -0.2999,5.75 1.0499,0 z m -7.95009,0 5,0 0,-5.39301 0,-5.39301 -1.58179,-0.60699 c -0.86998,-0.33385 -2.21998,-0.60699 -3,-0.60699 l -1.41821,0 0,1 0,1 2,0 2,0 0,4 0,4 -3,0 -3,0 0,-4.5 0,-4.5 -1,0 -1,0 0,5.5 0,5.5 5,0 z m -11.93964,0 5.06037,0 -0.31037,-3.75 -0.31036,-3.75 -3.75,-0.31037 -3.75,-0.31036 0,-0.93964 0,-0.93963 3.55901,0 3.55902,0 -0.61803,-1 -0.61804,-1 -3.94098,0 -3.94098,0 0,3 0,3 4,0 4,0 0,2 0,2 -4,0 -4,0 0,1 0,1 5.06036,0 z m -134.06036,0 c 0.55,0 1.9,-0.9 3,-2 1.1,-1.1 2,-2.45 2,-3 0,-0.55 -0.9,-1.9 -2,-3 -1.1,-1.1 -2.58672,-2 -3.30383,-2 l -1.30384,0 -3.22932,-3.33181 -3.22932,-3.33182 0.61047,-1.59087 0.61047,-1.59086 -2.07731,-2.07732 -2.07732,-2.07732 0,-2 0,-2 2,-2 c 1.1,-1.1 2,-2.45 2,-3 0,-0.55 -0.9,-1.9 -2,-3 -1.1,-1.1 -2.45,-2 -3,-2 -0.55,0 -1.9,0.9 -3,2 l -2,2 -8,0 -8,0 0,-7.5 0,-7.5 0.96482,0 c 0.53065,0 1.44648,-0.9 2.03518,-2 l 1.07037,-2 -1.00741,-1.88235 c -0.55407,-1.03529 -1.7275,-2.15868 -2.60762,-2.49641 l -1.60022,-0.61407 -1.80991,0.96864 c -0.99545,0.53274 -2.09806,1.71954 -2.45025,2.63731 l -0.64033,1.66869 1.48063,2.25974 1.48063,2.25974 0.29205,8.34935 0.29206,8.34936 9.44588,0.29012 9.44587,0.29012 1.30413,1.08232 1.30412,1.08233 0,2.67755 0,2.67756 -1.2,1.2 -1.2,1.2 -2.18337,0 -2.18337,0 -0.52301,-2 -0.52301,-2 -2.18724,0 -2.18724,0 -0.52301,2 -0.52301,2 -1.76674,0 -1.76674,0 -0.5437,-2.07911 -0.5437,-2.07911 -2.32293,0.32911 -2.32293,0.32911 0,5.5 0,5.5 2.32293,0.32911 2.32293,0.32911 0.5437,-2.07911 0.5437,-2.07911 1.76674,0 1.76674,0 0.52301,2 0.52301,2 2.18724,0 2.18724,0 0.52301,-2 0.52301,-2 1.91855,0 1.91856,0 2.42084,1.5862 2.42084,1.58619 0.88552,-0.54728 0.88553,-0.54729 3.2576,3.361 3.25761,3.361 -0.65031,2.04894 -0.6503,2.04894 2.05115,2.05115 c 1.12813,1.12813 2.50115,2.05115 3.05115,2.05115 z m 0,-4 c -0.55,0 -1,-0.45 -1,-1 0,-0.55 0.45,-1 1,-1 0.55,0 1,0.45 1,1 0,0.55 -0.45,1 -1,1 z m -12,-14 c -0.55,0 -1,-0.45 -1,-1 0,-0.55 0.45,-1 1,-1 0.55,0 1,0.45 1,1 0,0.55 -0.45,1 -1,1 z m -12,0 c -0.55,0 -1,-0.45 -1,-1 0,-0.55 0.45,-1 1,-1 0.55,0 1,0.45 1,1 0,0.55 -0.45,1 -1,1 z m -10,0 c -0.55,0 -1,-0.45 -1,-1 0,-0.55 0.45,-1 1,-1 0.55,0 1,0.45 1,1 0,0.55 -0.45,1 -1,1 z m 22,-14 c -0.55,0 -1,-0.45 -1,-1 0,-0.55 0.45,-1 1,-1 0.55,0 1,0.45 1,1 0,0.55 -0.45,1 -1,1 z m -22,-20 c -0.55,0 -1,-0.45 -1,-1 0,-0.55 0.45,-1 1,-1 0.55,0 1,0.45 1,1 0,0.55 -0.45,1 -1,1 z m 166,39 c 0.47143,0 1.56428,-0.70714 2.42857,-1.57143 0.86428,-0.86428 1.57143,-1.95714 1.57143,-2.42857 0,-0.47143 -0.675,-1.53214 -1.5,-2.35714 l -1.5,-1.5 0,-7.57143 0,-7.57143 6,0 6,0 0,3 0,3 -5,0 -5,0 0,3 0,3 5,0 5,0 0,5 0,5 1.0499,0 1.0499,0 -0.2999,-5.75 -0.2999,-5.75 -4.75,-0.30479 -4.75,-0.30479 0,-0.94521 0,-0.94521 5.05479,0 5.05479,0 -0.30479,-4.75 -0.30479,-4.75 -7.5,0 -7.5,0 -0.29228,8.36371 -0.29228,8.36371 -1.45772,1.45772 c -0.80175,0.80174 -1.45772,1.84343 -1.45772,2.31486 0,0.47143 0.70714,1.56429 1.57143,2.42857 0.86428,0.86429 1.95714,1.57143 2.42857,1.57143 z m 0,-3 c -0.55,0 -1,-0.45 -1,-1 0,-0.55 0.45,-1 1,-1 0.55,0 1,0.45 1,1 0,0.55 -0.45,1 -1,1 z m -176.45885,2.79218 2.04114,0.29219 0.70886,-0.70885 0.70885,-0.70885 0,-4.77432 0,-4.77432 -1,-0.61803 -1,-0.61803 0,-17.94099 0,-17.94098 7.03518,0 7.03519,0 2.32391,1.52269 2.32391,1.52268 1.66869,-0.64033 c 0.91777,-0.35219 2.12201,-1.4874 2.67608,-2.52269 l 1.00741,-1.88235 -1.00741,-1.88235 c -0.55407,-1.03529 -1.7275,-2.15868 -2.60762,-2.49641 l -1.60022,-0.61407 -1.92756,1.0316 c -1.06016,0.56738 -1.92756,1.46576 -1.92756,1.99641 l 0,0.96482 -8.44098,0 -8.44099,0 -0.44196,0.75 c -0.24308,0.4125 -0.60714,11.775 -0.80902,25.25 l -0.36705,24.5 2.04115,0.29218 z m 0.45885,-4.79218 c -0.55,0 -1,-0.45 -1,-1 0,-0.55 0.45,-1 1,-1 0.55,0 1,0.45 1,1 0,0.55 -0.45,1 -1,1 z m 20,-44 c -0.55,0 -1,-0.45 -1,-1 0,-0.55 0.45,-1 1,-1 0.55,0 1,0.45 1,1 0,0.55 -0.45,1 -1,1 z m -30.45885,48.79218 2.04114,0.29219 0.70886,-0.70885 0.70885,-0.70885 0,-4.63334 0,-4.63333 -0.95753,-0.95753 -0.95753,-0.95753 -0.29247,-8.99247 -0.29247,-8.99247 -28.75001,-0.26534 -28.75,-0.26533 0,-10.48467 0,-10.48466 0.96482,0 c 0.53065,0 1.46263,-0.93018 2.07107,-2.06706 l 1.10625,-2.06706 -1.63811,-2.50008 -1.63812,-2.50008 0.6056,-9.68286 c 0.33307,-5.32557 0.58043,-14.18286 0.54966,-19.68286 -0.0308,-5.50001 -0.28362,-27.212508 -0.5619,-48.250008 l -0.50596,-38.25 10.82335,0 10.82335,0 1.2,-1.2 1.19999,-1.2 0,-2.3 0,-2.3 41.00001,0 41,0 0,18.5 0,18.5 -8.43045,0 -8.43045,0 -0.31955,-2.25 -0.31955,-2.25 -2.5,0 -2.5,0 0,5.5 0,5.5 2.32293,0.32911 2.32293,0.32911 0.53457,-2.04419 0.53457,-2.0442 9.6425,-0.28491 9.6425,-0.28492 0.27114,-19.75 0.27114,-19.75 47.61102,0 47.61102,0 -0.38216,21.75 -0.38216,21.75 2.5,0 2.5,0 0.31049,-4.88951 0.31048,-4.88951 -1.06048,-1.06049 -1.06049,-1.06049 0,-15.8 0,-15.8 40.5,0 40.5,0 0,58 0,58.000008 -31.26706,0 -31.26705,0 -10.63248,10.75 -10.63247,10.75 -0.35047,18 -0.35047,18 2.5,0 2.5,0 -0.38727,-16.84432 -0.38727,-16.84433 9.86851,-9.90567 9.8685,-9.90568 32.26876,0 32.26877,0 0,-62.003308 0,-62.0032999 -147.75,0.2532999 -147.75001,0.2533 -0.26114,41.96114 -0.26114,41.96115 -0.98886,0.98885 -0.98886,0.98886 0,11.240988 0,11.24099 1,0.61803 1,0.61803 0,8.47617 0,8.47617 -1.615,2.46481 -1.61501,2.46482 1.58145,2.4136 1.58145,2.4136 0.28356,11.3364 0.28355,11.3364 28.87156,0.26554 28.87155,0.26553 -0.37155,13.73447 -0.37155,13.73446 2.04115,0.29218 z m 0.45885,-4.79218 c -0.55,0 -1,-0.45 -1,-1 0,-0.55 0.45,-1 1,-1 0.55,0 1,0.45 1,1 0,0.55 -0.45,1 -1,1 z m 150,-10 c -0.55,0 -1,-0.45 -1,-1 0,-0.55 0.45,-1 1,-1 0.55,0 1,0.45 1,1 0,0.55 -0.45,1 -1,1 z m -208.00001,-40 c -0.55,0 -1,-0.45 -1,-1 0,-0.55 0.45,-1 1,-1 0.55001,0 1,0.45 1,1 0,0.55 -0.44999,1 -1,1 z m 0,-34 c -0.55,0 -1,-0.45 -1,-1 0,-0.55 0.45,-1 1,-1 0.55001,0 1,0.45 1,1 0,0.55 -0.44999,1 -1,1 z M 235.15757,52.793972 c -0.55,0 -1,-0.45 -1,-1 0,-0.55 0.45,-1 1,-1 0.55,0 1,0.45 1,1 0,0.55 -0.45,1 -1,1 z m -120,0 c -0.55,0 -1,-0.45 -1,-1 0,-0.55 0.45,-1 1,-1 0.55,0 1,0.45 1,1 0,0.55 -0.45,1 -1,1 z m -84.00001,-36 c -0.55,0 -1,-0.45 -1,-1 0,-0.55 0.45,-1 1,-1 0.55001,0 1,0.45 1,1 0,0.55 -0.44999,1 -1,1 z m 43.54116,180.792188 2.04115,0.29219 0.70885,-0.70885 0.70885,-0.70885 0,-4.77432 0,-4.77432 -1,-0.61803 -1,-0.61803 0,-1.94099 0,-1.94098 0.96482,0 c 0.53065,0 1.42903,-0.8674 1.99641,-1.92756 l 1.0316,-1.92756 -0.61407,-1.60022 c -0.33773,-0.88012 -1.42852,-2.03611 -2.42397,-2.56885 l -1.80991,-0.96864 -1.60022,0.61407 c -0.88012,0.33773 -2.05355,1.46112 -2.60762,2.49641 l -1.00741,1.88235 1.28519,2.25 1.28518,2.25 0,7.5 0,7.5 2.04115,0.29218 z m 0.45884,-4.79218 c -0.55,0 -1,-0.45 -1,-1 0,-0.55 0.45,-1 1,-1 0.55001,0 1.00001,0.45 1.00001,1 0,0.55 -0.45,1 -1.00001,1 z m 0,-14 c -0.55,0 -1,-0.45 -1,-1 0,-0.55 0.45,-1 1,-1 0.55001,0 1.00001,0.45 1.00001,1 0,0.55 -0.45,1 -1.00001,1 z m -10.06223,19 2.125,0 0.5317,-1.3856 c 0.29244,-0.76207 0.39083,-3.34957 0.21862,-5.75 l -0.31309,-4.3644 -2.32292,-0.32911 -2.32293,-0.32911 -0.5437,2.07911 -0.5437,2.07911 -1.63337,-0.008 -1.63338,-0.008 -1.25,-2.69157 c -0.6875,-1.48036 -1.25,-3.05185 -1.25,-3.49219 0,-0.44035 0.9,-1.70064 2,-2.80064 1.10001,-1.1 2,-2.45 2,-3 0,-0.55 -0.89999,-1.9 -2,-3 -1.1,-1.1 -2.44999,-2 -3,-2 -0.55,0 -1.89999,0.9 -3,2 l -2,2 -4.03138,0 -4.03139,0 -0.54705,1.75 c -0.30088,0.9625 -1.20716,2.97897 -2.01395,4.48104 l -1.4669,2.73103 1.01756,1.90132 c 0.55965,1.04572 1.73765,2.17764 2.61777,2.51537 l 1.60022,0.61407 1.80991,-0.96864 c 0.99545,-0.53274 2.08624,-1.68873 2.42397,-2.56885 l 0.61407,-1.60022 -1.0316,-1.92756 c -0.56738,-1.05976 -1.46575,-1.92716 -1.99641,-1.92716 -0.53065,0 -0.96482,-0.45 -0.96482,-1 l 0,-1 3.44099,0 3.44099,0 0.80901,1.25 0.80901,1.25 0,7.5 0,7.5 2.32293,0.32911 2.32293,0.32911 0.5437,-2.07911 0.5437,-2.07911 1.76674,0 1.76675,0 0.52301,2 0.52301,2 2.125,0 z m 0.0622,-5 c -0.55,0 -1,-0.45 -1,-1 0,-0.55 0.45,-1 1,-1 0.55001,0 1,0.45 1,1 0,0.55 -0.44999,1 -1,1 z m -10,0 c -0.55,0 -1,-0.45 -1,-1 0,-0.55 0.45,-1 1,-1 0.55001,0 1,0.45 1,1 0,0.55 -0.44999,1 -1,1 z m -12,-6 c -0.55,0 -1,-0.45 -1,-1 0,-0.55 0.45,-1 1,-1 0.55001,0 1,0.45 1,1 0,0.55 -0.44999,1 -1,1 z m 12,-8 c -0.55,0 -1,-0.45 -1,-1 0,-0.55 0.45,-1 1,-1 0.55001,0 1,0.45 1,1 0,0.55 -0.44999,1 -1,1 z m 260.00001,18 3,0 0,-8.57143 0,-8.57143 1.5,-1.5 c 0.825,-0.825 1.5,-1.88571 1.5,-2.35714 0,-0.47143 -0.70715,-1.56429 -1.57143,-2.42857 -0.86429,-0.86429 -1.95714,-1.57143 -2.42857,-1.57143 -0.47143,0 -1.56429,0.70714 -2.42857,1.57143 -0.86429,0.86428 -1.57143,1.95714 -1.57143,2.42857 0,0.47143 0.675,1.53214 1.5,2.35714 l 1.5,1.5 0,7.57143 0,7.57143 -0.94521,0 -0.94521,0 -0.30479,-4.75 -0.30479,-4.75 -2.5,0 -2.5,0 -0.30479,4.75 -0.3048,4.75 -0.9452,0 -0.94521,0 0,-10.5 0,-10.5 -1,0 -1,0 0,11.5 0,11.5 3,0 3,0 0,-5 0,-5 1,0 1,0 0,5 0,5 3,0 z m 2,-20 c -0.55,0 -1,-0.45 -1,-1 0,-0.55 0.45,-1 1,-1 0.55,0 1,0.45 1,1 0,0.55 -0.45,1 -1,1 z m -22,20 7,0 0,-11.5 0,-11.5 -1,0 -1,0 0,10.5 0,10.5 -5,0 -5,0 0,-2.5 0,-2.5 -1,0 -1,0 0,3.5 0,3.5 7,0 z m -123.80689,-1.20945 11.69312,0.29056 1.05688,-1.97481 c 0.58129,-1.08615 1.05689,-2.6243 1.05689,-3.41811 l 0,-1.4433 1.5,-1.24489 1.5,-1.24489 0,-4.67755 0,-4.67756 -0.94907,-0.95 -0.94908,-0.95 -0.30092,-7 -0.30093,-7 -7.92279,-0.29517 -7.92279,-0.29518 -1.15925,-1.58536 -1.15924,-1.58536 -5.89134,-0.14609 -5.89134,-0.14609 -1.77663,1.77663 c -0.97714,0.97714 -1.77663,2.14061 -1.77663,2.58549 0,0.44488 0.59943,1.62862 1.33205,2.63054 l 1.33203,1.82166 5.7859,0.14348 5.78588,0.14347 1.63207,-1.24221 1.63207,-1.2422 6.81734,-0.0318 6.81734,-0.0318 -0.59731,13.64399 c -0.32852,7.5042 -0.83538,14.0292 -1.12636,14.5 l -0.52904,0.85601 -6.94099,0 -6.94098,0 0,-3.30887 0,-3.30887 -1.30602,-1.7861 -1.30603,-1.7861 -2.44397,0.34497 -2.44398,0.34497 0,6 0,6 11.69311,0.29055 z m -8.19311,-6.79055 c -0.55,0 -1,-0.45 -1,-1 0,-0.55 0.45,-1 1,-1 0.55,0 1,0.45 1,1 0,0.55 -0.45,1 -1,1 z m 22,-6 c -0.55,0 -1,-0.45 -1,-1 0,-0.55 0.45,-1 1,-1 0.55,0 1,0.45 1,1 0,0.55 -0.45,1 -1,1 z m -20,-20 c -0.55,0 -1,-0.45 -1,-1 0,-0.55 0.45,-1 1,-1 0.55,0 1,0.45 1,1 0,0.55 -0.45,1 -1,1 z m -8,0 c -0.55,0 -1,-0.45 -1,-1 0,-0.55 0.45,-1 1,-1 0.55,0 1,0.45 1,1 0,0.55 -0.45,1 -1,1 z m 57.54114,24.79218 2.04115,0.29219 0.70885,-0.70885 0.70885,-0.70885 0,-4.63334 0,-4.63333 -0.97196,-0.97196 -0.97195,-0.97196 -0.27805,-14.97804 -0.27804,-14.97804 -19.49999,-0.55724 -19.5,-0.55723 -1.80993,0.87449 -1.80993,0.8745 0.30993,2.68274 0.30993,2.68274 4.82845,0.308 4.82846,0.30799 0.53817,-2.05799 0.53818,-2.058 14.5179,0 14.5179,0 -0.38453,19.75 -0.38453,19.75 2.04115,0.29218 z m 0.45885,-4.79218 c -0.55,0 -1,-0.45 -1,-1 0,-0.55 0.45,-1 1,-1 0.55,0 1,0.45 1,1 0,0.55 -0.45,1 -1,1 z m -37.99999,-34 c -0.55,0 -1,-0.45 -1,-1 0,-0.55 0.45,-1 1,-1 0.55,0 1,0.45 1,1 0,0.55 -0.45,1 -1,1 z m 27.54114,38.79218 2.04115,0.29219 0.70885,-0.70885 0.70885,-0.70885 0,-4.63334 0,-4.63333 -0.96624,-0.96624 -0.96624,-0.96624 -0.28376,-11.98376 -0.28376,-11.98376 -8.56225,-0.28619 -8.56225,-0.2862 -1.84273,2.0362 -1.84274,2.03619 -5.68847,0 -5.68848,0 -4.21606,-5 -4.21606,-5 -3.82179,0 -3.82178,0 -2.61869,-3.43328 -2.61869,-3.43328 0,-49.066718 0,-49.06673 4.44098,0 4.44099,0 0.61803,1 0.61803,1 6.38197,0 6.38197,0 0.61803,-1 0.61803,-1 8.44287,0 8.44286,0 -0.25188,8.75 -0.25188,8.75 2.5,0 2.5,0 0.31682,-4.44087 0.31683,-4.44088 -1.03624,-2.05912 c -0.56992,-1.13252 -1.1625,-3.63413 -1.31682,-5.55913 l -0.28059,-3.5 -9.38712,-0.28934 -9.38712,-0.28934 -2.08539,-1.46066 -2.08538,-1.46066 -4.05499,0 -4.05499,0 -2.05883,1.44207 -2.05884,1.44206 -5.41367,0.30794 -5.41367,0.30793 -0.25924,50.88574 -0.25924,50.885738 3.57619,4.36426 3.57619,4.36427 3.77651,0 3.77652,0 4.21606,5 4.21606,5 6.30562,0 6.30561,0 2.54259,-2 2.54258,-2 6.72639,0 6.72638,0 -0.38412,16.75 -0.38411,16.75 2.04115,0.29218 z m 0.45885,-4.79218 c -0.55,0 -1,-0.45 -1,-1 0,-0.55 0.45,-1 1,-1 0.55,0 1,0.45 1,1 0,0.55 -0.45,1 -1,1 z M 195.15754,52.793972 c -0.55,0 -1,-0.45 -1,-1 0,-0.55 0.45,-1 1,-1 0.55,0 1,0.45 1,1 0,0.55 -0.45,1 -1,1 z m -30,-14 c -0.55,0 -1,-0.45 -1,-1 0,-0.55 0.45,-1 1,-1 0.55,0 1,0.45 1,1 0,0.55 -0.45,1 -1,1 z m 29.65564,148.807198 2.15564,0.30718 0.68397,-1.10669 0.68398,-1.10669 -0.69869,-9.31921 -0.69869,-9.3192 1.63176,-2.49039 1.63176,-2.49038 -0.64033,-1.66869 c -0.35219,-0.91777 -1.4548,-2.10457 -2.45025,-2.63731 l -1.80991,-0.96864 -1.60022,0.61407 c -0.88012,0.33773 -2.0697,1.49129 -2.64351,2.56347 l -1.04329,1.94941 1.6322,2.49107 1.63221,2.49107 -0.31114,10.19187 -0.31113,10.19187 2.15564,0.30719 z m 0.34436,-4.80719 c -0.55,0 -1,-0.45 -1,-1 0,-0.55 0.45,-1 1,-1 0.55,0 1,0.45 1,1 0,0.55 -0.45,1 -1,1 z m 0,-20 c -0.55,0 -1,-0.45 -1,-1 0,-0.55 0.45,-1 1,-1 0.55,0 1,0.45 1,1 0,0.55 -0.45,1 -1,1 z m -20.45885,24.79218 2.04114,0.29219 0.70886,-0.70885 0.70885,-0.70885 0,-4.34691 0,-4.3469 -0.927,-1.73643 c -0.50985,-0.95504 -1.18002,-2.54814 -1.48926,-3.54022 l -0.56226,-1.8038 -10.67979,0.22285 -10.6798,0.22285 -1.83095,1.83095 c -1.00701,1.00701 -1.83094,2.28094 -1.83094,2.83094 0,0.55 0.9,1.9 2,3 1.1,1.1 2.45,2 3,2 0.55,0 1.93479,-0.93479 3.07732,-2.07732 l 2.07731,-2.07732 -0.54594,-1.42268 -0.54593,-1.42268 6.79805,0 6.79805,0 -0.0794,6.75 -0.0794,6.75 2.04115,0.29218 z m 0.45885,-4.79218 c -0.55,0 -1,-0.45 -1,-1 0,-0.55 0.45,-1 1,-1 0.55,0 1,0.45 1,1 0,0.55 -0.45,1 -1,1 z m -20,-6 c -0.55,0 -1,-0.45 -1,-1 0,-0.55 0.45,-1 1,-1 0.55,0 1,0.45 1,1 0,0.55 -0.45,1 -1,1 z m 145.5,-10 18.5,0 0,-14.5 0,-14.5 -18.5,0 -18.5,0 0,14.5 0,14.5 18.5,0 z m -183.72251,0 c 0.42763,0 1.6913,-0.64005 2.80816,-1.42233 l 2.03066,-1.42234 3.44185,-0.32766 3.44184,-0.32767 0.2681,-23.75 0.2681,-23.75 3.94671,0 3.94672,0 1.03519,-1.93426 c 0.56935,-1.06384 1.03518,-2.1567 1.03518,-2.42857 0,-0.27187 -0.70714,-1.20146 -1.57143,-2.06574 l -1.57143,-1.57143 -3.86347,0 -3.86348,0 -2.5651,0.97525 -2.5651,0.97525 0,2.46573 0,2.46574 1,0.61803 1,0.61803 0,5.94099 0,5.94098 -39,0 -39,0 0,-1.53518 c 0,-0.84435 0.72675,-2.64435 1.61501,-4 l 1.61502,-2.46482 -1.61502,-2.46482 -1.61501,-2.46481 0,-4.07037 0,-4.07037 1.61501,-2.46481 1.61502,-2.46483 -1.61502,-2.464808 -1.61501,-2.46482 0,-2.54779 0,-2.5478 5.5,-2.43236 5.5,-2.43236 0,-1.55503 0,-1.55503 1.88338,0 1.88337,0 0.5437,2.07911 0.5437,2.07911 2.32293,-0.32911 2.32292,-0.32911 0,-5.5 0,-5.5 -2.5,0 -2.5,0 -0.31954,2.25 -0.31955,2.25 -1.86091,0 -1.8609,0 -0.31955,-2.25 -0.31955,-2.25 -2.5,0 -2.5,0 -0.29705,4.5605 -0.29705,4.56051 -4.20295,1.52668 -4.20295,1.52669 -0.31398,4.29565 -0.31399,4.29566 -1.55102,2.36716 -1.55103,2.367148 1.61502,2.46483 1.615,2.46481 0,4.07037 0,4.07037 -1.615,2.46481 -1.61501,2.46482 1.61501,2.46482 1.615,2.46481 0,3.53519 0,3.53518 26.95011,0 26.95009,0 0.29991,5.75 0.2999,5.75 2.44397,0.34497 2.44397,0.34497 1.30603,-1.7861 1.30603,-1.7861 0,-4.30887 0,-4.30887 10,0 10,0 0,14 0,14 -1.75,-0.0318 c -0.9625,-0.0175 -2.62351,-0.6925 -3.69113,-1.5 -1.06762,-0.80751 -2.30512,-1.4682 -2.75,-1.4682 -0.44488,0 -1.70887,0.9 -2.80887,2 -1.1,1.1 -2,2.45 -2,3 0,0.55 0.9,1.9 2,3 1.1,1.1 2.34987,2 2.77749,2 z m 0.22251,-4 c -0.55,0 -1,-0.45 -1,-1 0,-0.55 0.45,-1 1,-1 0.55,0 1,0.45 1,1 0,0.55 -0.45,1 -1,1 z m -16,-22 c -0.55,0 -1,-0.45 -1,-1 0,-0.55 0.45,-1 1,-1 0.55,0 1,0.45 1,1 0,0.55 -0.45,1 -1,1 z m -56.00001,-20 c -0.55,0 -1,-0.45 -1,-1 0,-0.55 0.45,-1 1,-1 0.55001,0 1,0.45 1,1 0,0.55 -0.44999,1 -1,1 z m 90.00001,-8 c -0.55,0 -1,-0.45 -1,-1 0,-0.55 0.45,-1 1,-1 0.55,0 1,0.45 1,1 0,0.55 -0.45,1 -1,1 z M 45.15753,102.79397 c -0.55,0 -1,-0.45 -1,-1 0,-0.55 0.45,-1 1,-1 0.55001,0 1,0.45 1,1 0,0.55 -0.44999,1 -1,1 z m 20,-19.999998 c -0.55,0 -1,-0.45 -1,-1 0,-0.55 0.45,-1 1,-1 0.55001,0 1,0.45 1,1 0,0.55 -0.44999,1 -1,1 z m -10,0 c -0.55,0 -1,-0.45 -1,-1 0,-0.55 0.45,-1 1,-1 0.55001,0 1,0.45 1,1 0,0.55 -0.44999,1 -1,1 z m -5.44443,81.000008 5.11111,0 0.66665,-0.66667 c 0.36667,-0.36666 0.66667,-1.72631 0.66667,-3.02144 l 0,-2.35477 -2.56376,-1.16813 -2.56377,-1.16813 -4.09884,1.09404 -4.09884,1.09404 -2.33739,-1.06498 -2.3374,-1.06499 0,-36.83949 0,-36.839488 0.96482,0 c 0.53066,0 1.44648,-0.9 2.03518,-2 l 1.07038,-2 -1.00741,-1.88235 c -0.55407,-1.03529 -1.6949,-2.14617 -2.53518,-2.46861 l -1.52779,-0.58627 -1.52778,0.58627 c -0.84028,0.32244 -1.99725,1.4635 -2.57107,2.53567 l -1.04329,1.94941 1.57107,2.39776 1.57107,2.39776 0,37.081698 0,37.08169 3.14703,1.70349 c 1.73087,0.93692 3.85588,2.49099 4.72224,3.45349 l 1.57521,1.75 5.11109,0 z m -0.55557,-3 c -0.55,0 -1,-0.45 -1,-1 0,-0.55 0.45,-1 1,-1 0.55001,0 1,0.45 1,1 0,0.55 -0.44999,1 -1,1 z m -12,-82.000008 c -0.55,0 -1,-0.45 -1,-1 0,-0.55 0.45,-1 1,-1 0.55001,0 1,0.45 1,1 0,0.55 -0.44999,1 -1,1 z m 28,84.000008 c 0.55001,0 1.9,-0.9 3,-2 1.10001,-1.1 2,-2.45 2,-3 0,-0.55 -0.89999,-1.9 -2,-3 -1.1,-1.1 -2.56675,-2 -3.25945,-2 l -1.25946,0 -1.24901,-2 -1.24902,-2 -1.91048,0 c -1.05077,0 -3.24641,-0.76671 -4.8792,-1.70381 l -2.96871,-1.7038 -3.86233,0.9538 -3.86233,0.95381 0,3 0,3 5.39279,0.30721 5.39279,0.30721 1.05721,-1.05721 c 0.58145,-0.58146 1.83689,-1.05721 2.78981,-1.05721 l 1.73262,0 0.59007,1.85912 0.59006,1.85913 -0.59999,1.56355 -0.6,1.56356 2.07732,2.07732 c 1.14252,1.14253 2.52731,2.07732 3.07731,2.07732 z m 0,-4 c -0.55,0 -1,-0.45 -1,-1 0,-0.55 0.45,-1 1,-1 0.55001,0 1,0.45 1,1 0,0.55 -0.44999,1 -1,1 z m -16,-8 c -0.55,0 -1,-0.45 -1,-1 0,-0.55 0.45,-1 1,-1 0.55001,0 1,0.45 1,1 0,0.55 -0.44999,1 -1,1 z m 95.18275,2.80993 2.68274,0.30993 1.06726,-1.99419 1.06726,-1.99419 0,-2.87461 0,-2.87461 -1.4682,-1.94113 -1.46819,-1.94113 -0.0318,-59.250008 -0.0318,-59.25 33.63503,0 33.63502,0 -0.38503,17.75 -0.38503,17.75 2.5,0 2.5,0 0.31683,-4.44087 0.31682,-4.44088 -1.06377,-2.05912 -1.06376,-2.05913 -0.25305,-12.5 -0.25307,-12.5 -35.99999,0 -36,0 -0.23909,60 -0.2391,60.000008 -1.07379,2.05176 -1.07379,2.05177 0.31288,4.94823 0.31289,4.94824 2.68274,0.30993 z m 0.81726,-4.80993 c -0.55,0 -1,-0.45 -1,-1 0,-0.55 0.45,-1 1,-1 0.55,0 1,0.45 1,1 0,0.55 -0.45,1 -1,1 z m 70.00002,-96.000008 c -0.55,0 -1,-0.45 -1,-1 0,-0.55 0.45,-1 1,-1 0.55,0 1,0.45 1,1 0,0.55 -0.45,1 -1,1 z M 61.34869,144.79398 c 0.44488,0 1.70887,-0.9 2.80887,-2 1.10001,-1.1 2,-2.45 2,-3 0,-0.55 -0.89999,-1.9 -2,-3 -1.1,-1.1 -2.44999,-2 -3,-2 -0.55,0 -1.7875,0.80372 -2.75,1.78605 l -1.75,1.78605 -2.63767,-1.48986 -2.63767,-1.48985 -3.86233,0.9538 -3.86233,0.95381 0,3 0,3 5.33119,0.30507 5.33116,0.30508 1.17166,-0.97239 1.17166,-0.97239 1.93829,1.41731 c 1.06607,0.77953 2.30229,1.41732 2.74717,1.41732 z m -0.19113,-4 c -0.55,0 -1,-0.45 -1,-1 0,-0.55 0.45,-1 1,-1 0.55001,0 1,0.45 1,1 0,0.55 -0.44999,1 -1,1 z m -12,0 c -0.55,0 -1,-0.45 -1,-1 0,-0.55 0.45,-1 1,-1 0.55001,0 1,0.45 1,1 0,0.55 -0.44999,1 -1,1 z m 152.79706,-5 38.79705,0 3.92264,-4.01714 3.92263,-4.01714 4.31695,-2.0898 4.31694,-2.0898 25.96337,0.73396 25.96337,0.73396 0,-23.62703 0,-23.627018 -1.53519,0 c -0.84435,0 -2.64435,-0.72675 -4,-1.61501 l -2.46481,-1.61501 -2.46482,1.61501 -2.46482,1.61501 -6.03518,0 -6.03518,0 0,-12 0,-12 6.03518,0 6.03518,0 2.32391,1.52269 2.32392,1.52268 1.66868,-0.64033 c 0.91778,-0.35218 2.12202,-1.48739 2.67609,-2.52269 l 1.0074,-1.88235 -1.0074,-1.88235 c -0.55407,-1.03529 -1.7275,-2.15868 -2.60763,-2.49641 l -1.60022,-0.61406 -1.92756,1.03159 c -1.06015,0.56738 -1.92755,1.46577 -1.92755,1.99642 l 0,0.96481 -6.5,0 -6.5,0 0,-12.5 0,-12.5 6.03518,0 6.03518,0 2.39776,1.57108 2.39776,1.57107 1.94941,-1.04329 c 1.07217,-0.57381 2.21323,-1.7308 2.53567,-2.57108 l 0.58627,-1.52778 -0.58627,-1.52778 c -0.32244,-0.84028 -1.43332,-1.98111 -2.46861,-2.53518 l -1.88235,-1.0074 -2,1.07036 c -1.1,0.58871 -2,1.48561 -2,1.99312 l 0,0.92275 -7.75,0.29207 -7.75,0.29206 0.29904,48.25 0.29905,48.250008 -13.08423,0 -13.08423,0 -2.42084,-1.5862 -2.42084,-1.58619 -1.02331,0.63244 -1.02331,0.63244 -1.98343,-1.0615 -1.98343,-1.0615 0.54008,-1.40743 0.54008,-1.40742 -2.07731,-2.07732 c -1.14253,-1.14253 -2.52732,-2.07732 -3.07732,-2.07732 -0.55,0 -1.9,0.9 -3,2 l -2,2 -1.4272,0 -1.4272,0 -3.11123,-3.75 -3.11122,-3.75 0.47002,-1.84645 0.47003,-1.84646 -0.54926,-1.43133 c -0.30208,-0.787228 -1.36371,-1.867208 -2.35916,-2.399958 l -1.80991,-0.96863 -1.60022,0.61406 c -0.88012,0.33773 -2.05355,1.46112 -2.60762,2.49641 l -1.00741,1.882348 1.03412,1.93228 1.03414,1.93228 2.25105,0.71332 2.25106,0.71332 3.83499,4.35441 3.83499,4.3544 1.56852,0 c 0.86269,0 3.9218,1.11328 6.79803,2.47395 l 5.22951,2.47396 0.53615,1.39717 0.53614,1.39718 -4.20701,4.12887 -4.20702,4.12887 -35.80096,0 -35.80097,0 0.65238,-6.25 c 0.35882,-3.4375 0.63738,-9.85 0.61904,-14.25 -0.0183,-4.4 -0.30283,-12.387508 -0.63219,-17.750008 l -0.59883,-9.75 2.45199,0 2.45199,0 0.5437,2.07911 0.5437,2.07911 2.32293,-0.32911 2.32293,-0.32911 0,-5.5 0,-5.5 -2.32293,-0.3291 -2.32294,-0.32911 -0.52997,2.02664 -0.52998,2.02663 -4.14709,0.30247 -4.14709,0.30247 -0.2891,9.9891 -0.28909,9.989098 -0.96091,0.9609 -0.9609,0.9609 0,9.24099 0,9.24099 1,0.61803 1,0.61803 0,6.94099 0,6.94098 38.79705,0 z m 49.20295,-13 c -0.55,0 -1,-0.45 -1,-1 0,-0.55 0.45,-1 1,-1 0.55,0 1,0.45 1,1 0,0.55 -0.45,1 -1,1 z m -10,-8 c -0.55,0 -1,-0.45 -1,-1 0,-0.55 0.45,-1 1,-1 0.55,0 1,0.45 1,1 0,0.55 -0.45,1 -1,1 z m -76,-2 c -0.55,0 -1,-0.45 -1,-1 0,-0.55 0.45,-1 1,-1 0.55,0 1,0.45 1,1 0,0.55 -0.45,1 -1,1 z m 57.99999,-10.00001 c -0.55,0 -1,-0.45 -1,-1 0,-0.55 0.45,-1 1,-1 0.55,0 1,0.45 1,1 0,0.55 -0.45,1 -1,1 z M 175.15757,82.793972 c -0.55,0 -1,-0.45 -1,-1 0,-0.55 0.45,-1 1,-1 0.55,0 1,0.45 1,1 0,0.55 -0.45,1 -1,1 z m 126,-2 c -0.55,0 -1,-0.45 -1,-1 0,-0.55 0.45,-1 1,-1 0.55,0 1,0.45 1,1 0,0.55 -0.45,1 -1,1 z m 0,-28 c -0.55,0 -1,-0.45 -1,-1 0,-0.55 0.45,-1 1,-1 0.55,0 1,0.45 1,1 0,0.55 -0.45,1 -1,1 z m 0,-28 c -0.55,0 -1,-0.45 -1,-1 0,-0.55 0.45,-1 1,-1 0.55,0 1,0.45 1,1 0,0.55 -0.45,1 -1,1 z m -83.94671,102.780038 11.5533,0.28004 0.6967,-0.6967 c 0.38319,-0.38319 0.6967,-1.73087 0.6967,-2.99485 l 0,-2.29815 -1.93425,-1.03519 -1.93426,-1.03518 -8.91076,0 -8.91075,0 -1.6791,-1.85538 -1.6791,-1.85538 0.60143,-1.5673 0.60143,-1.5673 -2.07732,-2.07732 c -1.14252,-1.14253 -2.52731,-2.07732 -3.07731,-2.07732 -0.55,0 -1.9,0.9 -3,2 -1.1,1.1 -2,2.45 -2,3 0,0.55 0.93479,1.93479 2.07732,3.07732 l 2.07731,2.07732 1.34957,-0.51788 1.34956,-0.51788 1.26199,1.5206 1.26198,1.5206 0.0611,3.16996 0.0612,3.16996 11.5533,0.28003 z m 7.9467,-2.78003 c -0.55,0 -1,-0.45 -1,-1 0,-0.55 0.45,-1 1,-1 0.55,0 1,0.45 1,1 0,0.55 -0.45,1 -1,1 z m -14,0 c -0.55,0 -1,-0.45 -1,-1 0,-0.55 0.45,-1 1,-1 0.55,0 1,0.45 1,1 0,0.55 -0.45,1 -1,1 z m -9.99999,-10 c -0.55,0 -1,-0.45 -1,-1 0,-0.55 0.45,-1 1,-1 0.55,0 1,0.45 1,1 0,0.55 -0.45,1 -1,1 z m -17.9467,12.78003 11.5533,0.28004 0.6967,-0.6967 c 0.38318,-0.38319 0.6967,-1.73087 0.6967,-2.99485 l 0,-2.29815 -1.93426,-1.03519 -1.93426,-1.03518 -4.06574,0 -4.06574,0 0,-7 0,-7 0.96482,0 c 0.53065,0 1.46263,-0.93018 2.07107,-2.06706 l 1.10625,-2.06706 -1.57107,-2.397758 -1.57107,-2.39776 0,-2.63405 0,-2.63406 1.56277,-3.29329 1.56276,-3.29328 -0.31276,-4.35784 -0.31277,-4.35785 -2.5,0 -2.5,0 -0.14321,9.64605 -0.1432,9.64605 -2.25614,3.05157 -2.25612,3.051568 1.64933,2.51721 1.64933,2.51719 0,6.53519 0,6.53518 -3.30887,0 -3.30887,0 -1.7861,1.30603 -1.7861,1.30603 0.34497,2.44397 0.34498,2.44397 11.5533,0.28003 z m 7.9467,-2.78003 c -0.55,0 -1,-0.45 -1,-1 0,-0.55 0.45,-1 1,-1 0.55,0 1,0.45 1,1 0,0.55 -0.45,1 -1,1 z m -16,0 c -0.55,0 -1,-0.45 -1,-1 0,-0.55 0.45,-1 1,-1 0.55,0 1,0.45 1,1 0,0.55 -0.45,1 -1,1 z m 8,-22.00001 c -0.55,0 -1,-0.45 -1,-1 0,-0.55 0.45,-1 1,-1 0.55,0 1,0.45 1,1 0,0.55 -0.45,1 -1,1 z m 2,-19.999998 c -0.55,0 -1,-0.45 -1,-1 0,-0.55 0.45,-1 1,-1 0.55,0 1,0.45 1,1 0,0.55 -0.45,1 -1,1 z M 115.3487,124.79398 c 0.44488,0 1.70887,-0.9 2.80887,-2 1.1,-1.1 2,-2.45 2,-3 0,-0.55 -0.9,-1.9 -2,-3 -1.1,-1.1 -2.45,-2 -3,-2 -0.55,0 -1.9,0.9 -3,2 l -2,2 -5,0 -5,0 -2,-2 c -1.1,-1.1 -2.45,-2 -3,-2 -0.55,0 -1.9,0.9 -3,2 l -2,2 -2,0 -2,0 0,-15.44099 0,-15.440978 1,-0.61804 1,-0.61803 0,-4.88197 0,-4.88196 -1,-0.61804 -1,-0.61803 0,-1.94098 0,-1.94099 8.43309,0 8.4331,0 -0.1831,7.75 -0.18309,7.75 2.5,0 2.5,0 0.31682,-4.44087 0.31683,-4.44088 -1.02523,-2.05912 c -0.56387,-1.13252 -1.15644,-3.18413 -1.31682,-4.55913 l -0.2916,-2.5 -9.75,-0.28621 -9.75,-0.28621 0,-5.26379 0,-5.26379 1.06049,-1.06049 1.06048,-1.06048 -0.31048,-4.88952 -0.31049,-4.88951 -2.5,0 -2.5,0 0.19477,27.25 0.19477,27.249998 -10.94477,0 -10.94478,0 0,-0.964808 c 0,-0.53065 -0.86739,-1.42904 -1.92756,-1.99642 l -1.92756,-1.03159 -1.60022,0.61406 c -0.88012,0.33773 -2.03611,1.42852 -2.56885,2.42397 l -0.96864,1.809908 0.61407,1.60022 c 0.33774,0.88013 1.49129,2.06971 2.56347,2.64352 l 1.94941,1.04329 2.39775,-1.57107 2.39776,-1.57107 10.49625,0 10.49625,0 0.28894,8.75 0.28893,8.75 3.39882,0.32446 3.39882,0.32446 2.35118,1.54055 2.35119,1.54055 2.46482,-1.61501 2.46481,-1.61501 5.28519,0.0318 5.28518,0.0318 1.94113,1.46819 c 1.06762,0.80751 2.30511,1.4682 2.75,1.4682 z m -0.19113,-4 c -0.55,0 -1,-0.45 -1,-1 0,-0.55 0.45,-1 1,-1 0.55,0 1,0.45 1,1 0,0.55 -0.45,1 -1,1 z m -20,0 c -0.55,0 -1,-0.45 -1,-1 0,-0.55 0.45,-1 1,-1 0.55,0 1,0.45 1,1 0,0.55 -0.45,1 -1,1 z M 57.15756,102.79397 c -0.55,0 -1,-0.45 -1,-1 0,-0.55 0.45,-1 1,-1 0.55001,0 1,0.45 1,1 0,0.55 -0.44999,1 -1,1 z m 48.00001,-19.999998 c -0.55,0 -1,-0.45 -1,-1 0,-0.55 0.45,-1 1,-1 0.55,0 1,0.45 1,1 0,0.55 -0.45,1 -1,1 z m -20,0 c -0.55,0 -1,-0.45 -1,-1 0,-0.55 0.45,-1 1,-1 0.55,0 1,0.45 1,1 0,0.55 -0.45,1 -1,1 z m 0,-30 c -0.55,0 -1,-0.45 -1,-1 0,-0.55 0.45,-1 1,-1 0.55,0 1,0.45 1,1 0,0.55 -0.45,1 -1,1 z m -9.80888,72.000008 c 0.44488,0 1.70888,-0.9 2.80888,-2 1.1,-1.1 2,-2.45 2,-3 0,-0.55 -0.9,-1.9 -2,-3 -1.1,-1.1 -2.364,-2 -2.80888,-2 -0.44488,0 -1.68237,0.66069 -2.75,1.4682 l -1.94113,1.46819 -4.28518,0.0318 -4.28519,0.0318 -2.32391,-1.52269 -2.32391,-1.52268 -1.66869,0.64033 c -0.91777,0.35219 -2.10457,1.4548 -2.63731,2.45025 l -0.96864,1.80991 0.61407,1.60022 c 0.33773,0.88012 1.49129,2.0697 2.56347,2.64351 l 1.94941,1.04329 2.39775,-1.57107 2.39776,-1.57107 4.28519,0.0318 4.28518,0.0318 1.94113,1.46819 c 1.06762,0.80751 2.30512,1.4682 2.75,1.4682 z m -0.19113,-4 c -0.55,0 -1,-0.45 -1,-1 0,-0.55 0.45,-1 1,-1 0.55001,0 1.00001,0.45 1.00001,1 0,0.55 -0.45,1 -1.00001,1 z m -18,0 c -0.55,0 -1,-0.45 -1,-1 0,-0.55 0.45,-1 1,-1 0.55001,0 1,0.45 1,1 0,0.55 -0.44999,1 -1,1 z m 217.18275,-5.19007 2.68274,0.30993 1.06726,-1.99419 1.06726,-1.99419 0,-3.63148 0,-3.63148 -1.03519,-1.93427 -1.03518,-1.93426 -1.38413,0 -1.38413,0 -5.00221,-8.712368 -5.00221,-8.71238 0.95671,-1.78762 0.9567,-1.78763 -1.07036,-2 c -0.58871,-1.1 -1.50454,-2 -2.03519,-2 l -0.96481,0 0,-2.33948 0,-2.33949 2.55714,-1.16511 2.55715,-1.16512 1.94285,1.03979 1.94286,1.03978 1.88235,-1.0074 c 1.03529,-0.55407 2.15868,-1.72751 2.49641,-2.60763 l 0.61406,-1.60022 -0.96863,-1.80991 c -0.53275,-0.99545 -1.68873,-2.08624 -2.56886,-2.42397 l -1.60022,-0.61406 -1.92756,1.03159 -1.92755,1.0316 -2,-1.07037 -2,-1.07036 -2,1.07036 -2,1.07037 -0.12905,1.21482 c -0.071,0.66815 -0.0327,3.3098 0.085,5.87035 l 0.21399,4.65553 -1.65602,2.52741 -1.65602,2.52741 1.07001,1.99933 1.07001,1.99933 1.75107,0.56979 1.75106,0.56978 4.48945,7.74794 4.48945,7.747938 0.51055,7.50001 0.51055,7.5 2.68274,0.30993 z m 0.81726,-2.80993 c -0.55,0 -1,-0.45 -1,-1 0,-0.55 0.45,-1 1,-1 0.55,0 1,0.45 1,1 0,0.55 -0.45,1 -1,1 z m -14,-32.000008 c -0.55,0 -1,-0.45 -1,-1 0,-0.55 0.45,-1 1,-1 0.55,0 1,0.45 1,1 0,0.55 -0.45,1 -1,1 z m 10,-14 c -0.55,0 -1,-0.45 -1,-1 0,-0.55 0.45,-1 1,-1 0.55,0 1,0.45 1,1 0,0.55 -0.45,1 -1,1 z m -8,0 c -0.55,0 -1,-0.45 -1,-1 0,-0.55 0.45,-1 1,-1 0.55,0 1,0.45 1,1 0,0.55 -0.45,1 -1,1 z m -0.81726,48.809938 2.68274,0.30993 1.06726,-1.99419 1.06726,-1.99419 0,-4.06574 0,-4.06574 -2.25,-2.19746 c -1.2375,-1.2086 -2.92866,-3.571098 -3.75812,-5.249998 l -1.50812,-3.05255 -15.18266,-0.27572 -15.18266,-0.27573 -0.75434,-2.22427 -0.75433,-2.22428 0.28067,-5.6381 0.28069,-5.6381 -1.08558,-0.67091 -1.08556,-0.67092 0,-8.74098 0,-8.74099 1.06049,-1.06049 1.06049,-1.06048 -0.31049,-4.88952 -0.31049,-4.88951 -2.5,0 -2.5,0 0.27707,9.25 0.27707,9.25 -18.52707,0 -18.52706,0 0,-3.3 0,-3.3 1.06049,-1.06049 1.06048,-1.06048 -0.31048,-4.88952 -0.31049,-4.88951 -2.5,0 -2.5,0 0.27707,9.25 0.27707,9.25 -2.27707,-0.0318 -2.27707,-0.0318 -1.94113,-1.46819 -1.94113,-1.46821 -5.11774,0 -5.11774,0 -1.7861,1.30603 -1.7861,1.30603 0.34497,2.44397 0.34497,2.44397 7.4031,0.2969 7.4031,0.2969 1.0469,-1.0469 1.0469,-1.0469 12.34766,0 12.34766,0 -0.29766,9.75 -0.29766,9.75 2.5,0 2.5,0 0.31049,-4.88951 0.31049,-4.88951 -1.06049,-1.06049 -1.0605,-1.06049 0,-3.8 0,-3.8 8.60616,0 8.60617,0 -0.69626,8.79694 -0.69625,8.79694 2.90869,4.95306 2.9087,4.95306 15.07939,0.2755 15.07939,0.2755 0.70399,2.7245 c 0.3872,1.498478 0.7706,5.874508 0.85201,9.724508 l 0.14802,7 2.68274,0.30993 z m 0.81726,-2.80993 c -0.55,0 -1,-0.45 -1,-1 0,-0.55 0.45,-1 1,-1 0.55,0 1,0.45 1,1 0,0.55 -0.45,1 -1,1 z M 225.15756,82.793972 c -0.55,0 -1,-0.45 -1,-1 0,-0.55 0.45,-1 1,-1 0.55,0 1,0.45 1,1 0,0.55 -0.45,1 -1,1 z m -20,0 c -0.55,0 -1,-0.45 -1,-1 0,-0.55 0.45,-1 1,-1 0.55,0 1,0.45 1,1 0,0.55 -0.45,1 -1,1 z m -39.99999,-16 c -0.55,0 -1,-0.45 -1,-1 0,-0.55 0.45,-1 1,-1 0.55,0 1,0.45 1,1 0,0.55 -0.45,1 -1,1 z m 59.99999,-14 c -0.55,0 -1,-0.45 -1,-1 0,-0.55 0.45,-1 1,-1 0.55,0 1,0.45 1,1 0,0.55 -0.45,1 -1,1 z m -39.99999,0 c -0.55,0 -1,-0.45 -1,-1 0,-0.55 0.45,-1 1,-1 0.55,0 1,0.45 1,1 0,0.55 -0.45,1 -1,1 z M 127.3487,102.79397 c 0.44488,0 1.70887,-0.9 2.80887,-2 1.1,-1.099998 2,-2.449998 2,-2.999998 0,-0.55 -0.9,-1.9 -2,-3 -1.1,-1.1 -2.36399,-2 -2.80887,-2 -0.44489,0 -1.68238,0.66069 -2.75,1.4682 l -1.94113,1.4682 -2.79766,0.0318 -2.79766,0.0318 0.29766,-9.71854 0.29766,-9.71854 -1.85622,-0.37524 -1.85622,-0.37524 -0.95621,0.9562 -0.9562,0.95621 0.70475,11.13758 0.70475,11.13757 4.60768,0.0318 4.60767,0.0318 1.94113,1.468198 c 1.06762,0.80752 2.30512,1.4682 2.75,1.4682 z m -0.19113,-3.999998 c -0.55,0 -1,-0.45 -1,-1 0,-0.55 0.45,-1 1,-1 0.55,0 1,0.45 1,1 0,0.55 -0.45,1 -1,1 z m -12,-16 c -0.55,0 -1,-0.45 -1,-1 0,-0.55 0.45,-1 1,-1 0.55,0 1,0.45 1,1 0,0.55 -0.45,1 -1,1 z M 103.3487,102.79397 c 0.44488,0 1.70887,-0.9 2.80887,-2 1.1,-1.099998 2,-2.449998 2,-2.999998 0,-0.55 -0.9,-1.9 -2,-3 -1.1,-1.1 -2.36399,-2 -2.80887,-2 -0.44489,0 -1.68238,0.66069 -2.75,1.4682 -1.06762,0.80751 -2.30008,1.48251 -2.73879,1.5 l -0.79766,0.0318 0.29766,-9.71854 0.29766,-9.71853 -1.85622,-0.37525 -1.85622,-0.37524 -0.95621,0.95621 -0.9562,0.9562 0.70475,11.13758 0.70475,11.13757 2.60768,0.0318 2.60767,0.0318 1.94113,1.468198 c 1.06762,0.80751 2.30512,1.4682 2.75,1.4682 z m -0.19113,-3.999998 c -0.55,0 -1,-0.45 -1,-1 0,-0.55 0.45,-1 1,-1 0.55,0 1,0.45 1,1 0,0.55 -0.45,1 -1,1 z m -8,-16 c -0.55,0 -1,-0.45 -1,-1 0,-0.55 0.45,-1 1,-1 0.55,0 1,0.45 1,1 0,0.55 -0.45,1 -1,1 z m 109.30195,13 10.36472,0 0.66665,-0.66666 c 0.36667,-0.36667 0.66667,-2.07667 0.66667,-3.8 l 0,-3.13334 1.06049,-1.06049 1.06049,-1.06048 -0.31049,-4.88952 -0.31049,-4.88951 -2.5,0 -2.5,0 0.221,8.25 0.22101,8.25 -8.47101,0 -8.47099,0 0,-2.3 0,-2.3 1.06049,-1.06049 1.06048,-1.06048 -0.31048,-4.88952 -0.31049,-4.88951 -2.5,0 -2.5,0 0.23622,8.49289 c 0.12991,4.67109 0.45329,9.05859 0.71861,9.75 l 0.4824,1.25711 10.36472,0 z m 10.69804,-13 c -0.55,0 -1,-0.45 -1,-1 0,-0.55 0.45,-1 1,-1 0.55,0 1,0.45 1,1 0,0.55 -0.45,1 -1,1 z m -19.99999,0 c -0.55,0 -1,-0.45 -1,-1 0,-0.55 0.45,-1 1,-1 0.55,0 1,0.45 1,1 0,0.55 -0.45,1 -1,1 z m 39.82293,4.82911 2.32293,0.32911 0.53048,-2.02854 0.53047,-2.02854 4.64659,-0.30057 4.6466,-0.30057 0.29899,-6.29899 0.29898,-6.29898 1.95102,-1.95102 c 1.07305,-1.07305 1.95101,-2.40101 1.95101,-2.95101 0,-0.55 -0.9,-1.9 -2,-3 l -2,-2 0,-9 0,-9 2,-2 c 1.1,-1.1 2,-2.45 2,-3 0,-0.55 -0.9,-1.9 -2,-3 l -2,-2 0,-3.5 0,-3.5 4.03518,0 4.03518,0 2.39776,1.57108 2.39776,1.57107 1.94941,-1.04329 c 1.07217,-0.57381 2.21323,-1.7308 2.53567,-2.57108 l 0.58627,-1.52778 -0.58627,-1.52778 c -0.32244,-0.84028 -1.43332,-1.98111 -2.46861,-2.53518 l -1.88235,-1.0074 -2,1.07036 c -1.1,0.58871 -2,1.48208 -2,1.98528 l 0,0.91492 -5.75,0.2999 -5.75,0.2999 -0.30997,4.87671 -0.30997,4.8767 -1.55504,2.3733 -1.55504,2.37329 1.61501,2.46482 1.61501,2.46482 0,9.07036 0,9.07037 -1.61501,2.46482 -1.61501,2.46481 1.61501,2.46482 1.61501,2.46482 0,5.03518 0,5.03518 -3.43045,0 -3.43045,0 -0.31955,-2.25 -0.31955,-2.25 -2.5,0 -2.5,0 0,5.5 0,5.5 2.32293,0.32911 z m 0.17707,-4.82911 c -0.55,0 -1,-0.45 -1,-1 0,-0.55 0.45,-1 1,-1 0.55,0 1,0.45 1,1 0,0.55 -0.45,1 -1,1 z m 12,-16 c -0.55,0 -1,-0.45 -1,-1 0,-0.55 0.45,-1 1,-1 0.55,0 1,0.45 1,1 0,0.55 -0.45,1 -1,1 z m 0,-28 c -0.55,0 -1,-0.45 -1,-1 0,-0.55 0.45,-1 1,-1 0.55,0 1,0.45 1,1 0,0.55 -0.45,1 -1,1 z m 14,-14 c -0.55,0 -1,-0.45 -1,-1 0,-0.55 0.45,-1 1,-1 0.55,0 1,0.45 1,1 0,0.55 -0.45,1 -1,1 z m -186.45885,62.79219 2.04115,0.29218 0.70885,-0.70885 0.70885,-0.70885 0,-4.63333 0,-4.63334 -0.93317,-0.95 -0.93318,-0.95 -0.31682,-4 -0.31684,-4 -4.75,-0.30479 -4.75,-0.30479 0,-4.24521 0,-4.24521 1.0605,-1.06049 1.06049,-1.06048 -0.31049,-4.88952 -0.3105,-4.88951 -2.5,0 -2.5,0 0.31453,10.25 0.31453,10.25 -3.56453,0 -3.56453,0 0,-4.3 0,-4.3 1.0605,-1.06049 1.06049,-1.06048 -0.31049,-4.88952 -0.3105,-4.88951 -2.5,0 -2.5,0 0.31453,10.25 0.31453,10.25 -7.56453,0 -7.56453,0 0,-18.5 0,-18.5 32.44099,0 32.44099,0 0.61803,1 0.61803,1 6.4058,0 6.4058,0 1.03519,-1.93426 c 0.56935,-1.06384 1.03518,-2.15669 1.03518,-2.42857 0,-0.27187 -0.70714,-1.20145 -1.57143,-2.06574 l -1.57143,-1.57143 -4.02745,0 -4.02744,0 -3.15113,1.4902 -3.15113,1.49019 -33,0.25981 -33,0.2598 0,21 0,21 18.7505,0.27207 18.75049,0.27207 -0.25049,8.72793 -0.2505,8.72793 2.04116,0.29219 z m 0.45884,-4.79219 c -0.55,0 -1,-0.45 -1,-1 0,-0.55 0.45,-1 1,-1 0.55001,0 1.00001,0.45 1.00001,1 0,0.55 -0.45,1 -1.00001,1 z m -10,-30 c -0.55,0 -1,-0.45 -1,-1 0,-0.55 0.45,-1 1,-1 0.55001,0 1,0.45 1,1 0,0.55 -0.44999,1 -1,1 z m -10,0 c -0.55,0 -1,-0.45 -1,-1 0,-0.55 0.45,-1 1,-1 0.55001,0 1,0.45 1,1 0,0.55 -0.44999,1 -1,1 z m 60.00001,-24 c -0.55,0 -1,-0.45 -1,-1 0,-0.55 0.45,-1 1,-1 0.55,0 1,0.45 1,1 0,0.55 -0.45,1 -1,1 z m 20,58 c 0.55,0 1.9,-0.9 3,-2 1.1,-1.1 2,-2.34987 2,-2.77749 0,-0.42762 -0.71829,-1.803 -1.59621,-3.0564 l -1.59622,-2.27891 0.42612,-4.1936 c 0.23437,-2.30648 0.75354,-4.92307 1.15371,-5.81466 l 0.72761,-1.62106 -1.50619,-1.50619 -1.5062,-1.5062 -20.05131,0.5219 -20.05131,0.5219 0,-2.44464 0,-2.44465 1.06049,-1.06049 1.06049,-1.06048 -0.31049,-4.88952 -0.31049,-4.88951 -2.5,0 -2.5,0 0.23622,8.49289 c 0.12991,4.67109 0.45329,9.05859 0.71861,9.75 l 0.4824,1.25711 14.41475,0 14.41476,0 0.52301,2 0.52301,2 4.59362,0 4.59361,0 -0.0318,3.75 -0.0318,3.75 -1.46819,1.94113 c -0.80751,1.06762 -1.4682,2.30512 -1.4682,2.75 0,0.44488 0.90001,1.70887 2,2.80887 1.1,1.1 2.45,2 3,2 z m 0,-4 c -0.55,0 -1,-0.45 -1,-1 0,-0.55 0.45,-1 1,-1 0.55,0 1,0.45 1,1 0,0.55 -0.45,1 -1,1 z m 0,-16 c -0.55,0 -1,-0.45 -1,-1 0,-0.55 0.45,-1 1,-1 0.55,0 1,0.45 1,1 0,0.55 -0.45,1 -1,1 z m -40,-14 c -0.55,0 -1,-0.45 -1,-1 0,-0.55 0.45,-1 1,-1 0.55,0 1,0.45 1,1 0,0.55 -0.45,1 -1,1 z m 213.17268,17.43277 1.67268,0.72187 2.07732,-2.07732 c 1.14252,-1.14252 2.07732,-2.52732 2.07732,-3.07732 0,-0.55 -0.9348,-1.93479 -2.07732,-3.07732 l -2.07732,-2.07731 -1.67268,0.72187 c -0.91998,0.39703 -2.34768,0.72187 -3.17268,0.72187 -0.825,0 -2.25271,-0.32484 -3.17268,-0.72187 l -1.67269,-0.72187 -2.07731,2.07731 c -1.14253,1.14253 -2.07732,2.52732 -2.07732,3.07732 0,0.55 0.93479,1.9348 2.07732,3.07732 l 2.07731,2.07732 1.67269,-0.72187 c 0.91997,-0.39703 2.34768,-0.72187 3.17268,-0.72187 0.825,0 2.2527,0.32484 3.17268,0.72187 z m 0.82732,-3.43277 c -0.55,0 -1,-0.45 -1,-1 0,-0.55 0.45,-1 1,-1 0.55,0 1,0.45 1,1 0,0.55 -0.45,1 -1,1 z m -8,0 c -0.55,0 -1,-0.45 -1,-1 0,-0.55 0.45,-1 1,-1 0.55,0 1,0.45 1,1 0,0.55 -0.45,1 -1,1 z m -96.45886,-9.20781 2.04115,0.29218 0.70885,-0.70885 0.70885,-0.70885 0,-4.77432 0,-4.77431 -1,-0.61804 -1,-0.61803 0,-5.44098 0,-5.44099 2,-2 c 1.1,-1.1 2,-2.45 2,-3 0,-0.55 -0.93479,-1.93479 -2.07732,-3.07732 l -2.07732,-2.07731 -1.67268,0.82731 -1.67267,0.82732 -19.77342,0.2903 -19.77343,0.2903 -2.19908,-1.5403 -2.19908,-1.5403 -3.08637,0 -3.08636,0 -1.7861,1.30603 -1.7861,1.30603 0.34497,2.44397 0.34497,2.44397 5.39279,0.30722 5.39279,0.30721 1.05721,-1.05721 1.05721,-1.05722 18.68499,0 18.68499,0 1.69965,2.59399 1.69965,2.59399 -0.33464,11.15601 -0.33464,11.15601 2.04114,0.29219 z m 0.45885,-4.79219 c -0.55,0 -1,-0.45 -1,-1 0,-0.55 0.45,-1 1,-1 0.55,0 1,0.45 1,1 0,0.55 -0.45,1 -1,1 z m 0,-22 c -0.55,0 -1,-0.45 -1,-1 0,-0.55 0.45,-1 1,-1 0.55,0 1,0.45 1,1 0,0.55 -0.45,1 -1,1 z m -51.99999,-2 c -0.55,0 -1,-0.45 -1,-1 0,-0.55 0.45,-1 1,-1 0.55,0 1,0.45 1,1 0,0.55 -0.45,1 -1,1 z m -48.45885,28.79219 2.04115,0.29218 0.70885,-0.70885 0.70885,-0.70885 0,-4.77432 0,-4.77431 -1,-0.61804 -1,-0.61803 0,-2.94098 0,-2.94099 6.44098,0 6.44099,0 0.61803,1 0.61803,1 5.4058,0 5.4058,0 1.03519,-1.93426 c 0.56935,-1.06384 1.03518,-2.15669 1.03518,-2.42857 0,-0.27187 -0.70714,-1.20145 -1.57143,-2.06574 l -1.57143,-1.57143 -3.17857,0.006 -3.17858,0.006 -2.8643,1.49384 -2.8643,1.49384 -6.91708,0 -6.91708,0 -0.46443,1.25 c -0.25544,0.6875 -0.57881,5.3 -0.71861,10.25 l -0.25419,9 2.04115,0.29219 z m 0.45885,-4.79219 c -0.55,0 -1,-0.45 -1,-1 0,-0.55 0.45,-1 1,-1 0.55,0 1,0.45 1,1 0,0.55 -0.45,1 -1,1 z m 24,-14 c -0.55,0 -1,-0.45 -1,-1 0,-0.55 0.45,-1 1,-1 0.55,0 1,0.45 1,1 0,0.55 -0.45,1 -1,1 z m -54.45885,18.79219 2.04115,0.29218 0.70885,-0.70885 0.70885,-0.70885 0,-4.63333 0,-4.63334 -0.92305,-0.95 c -0.50768,-0.5225 -1.07018,-2.3 -1.25,-3.95 l -0.32696,-3 -12.25,-0.28078 -12.25,-0.28077 0,-0.93404 c 0,-0.51372 -0.89999,-1.4157 -2,-2.00441 l -2,-1.07036 -1.88234,1.0074 c -1.03529,0.55407 -2.15868,1.7275 -2.49642,2.60763 l -0.61407,1.60022 0.96864,1.80991 c 0.53274,0.99545 1.71954,2.09806 2.63731,2.45024 l 1.6687,0.64033 2.32391,-1.52268 2.3239,-1.52269 10.46828,0 10.46828,0 -0.1831,7.75 -0.18309,7.75 2.04115,0.29219 z m 0.45884,-4.79219 c -0.55,0 -1,-0.45 -1,-1 0,-0.55 0.45,-1 1,-1 0.55001,0 1.00001,0.45 1.00001,1 0,0.55 -0.45,1 -1.00001,1 z m -28,-12 c -0.55,0 -1,-0.45 -1,-1 0,-0.55 0.45,-1 1,-1 0.55001,0 1,0.45 1,1 0,0.55 -0.44999,1 -1,1 z m 214.00001,16 c 0.55,0 1.9,-0.9 3,-2 1.1,-1.1 2,-2.45 2,-3 0,-0.55 -0.9,-1.9 -2,-3 l -2,-2 0,-1.83948 0,-1.83949 2.55714,-1.16511 2.55715,-1.16512 1.87041,1.00102 1.87041,1.00101 1.60022,-0.61406 c 0.88013,-0.33774 2.03611,-1.42852 2.56886,-2.42397 l 0.96863,-1.80991 -0.61406,-1.60022 c -0.33773,-0.88013 -1.46112,-2.05356 -2.49641,-2.60763 l -1.88235,-1.0074 -2,1.07036 -2,1.07037 -2,-1.07037 -2,-1.07036 -2,1.07036 -2,1.07037 -0.12905,1.21482 c -0.071,0.66815 -0.0311,3.33184 0.0886,5.91932 l 0.21761,4.70452 -1.58856,2.26799 c -0.87372,1.2474 -1.58857,2.61787 -1.58857,3.04549 0,0.42762 0.9,1.67749 2,2.77749 1.1,1.1 2.45,2 3,2 z m 0,-4 c -0.55,0 -1,-0.45 -1,-1 0,-0.55 0.45,-1 1,-1 0.55,0 1,0.45 1,1 0,0.55 -0.45,1 -1,1 z m 10,-14 c -0.55,0 -1,-0.45 -1,-1 0,-0.55 0.45,-1 1,-1 0.55,0 1,0.45 1,1 0,0.55 -0.45,1 -1,1 z m -8,0 c -0.55,0 -1,-0.45 -1,-1 0,-0.55 0.45,-1 1,-1 0.55,0 1,0.45 1,1 0,0.55 -0.45,1 -1,1 z m 45.17268,3.43277 1.67268,0.72187 2.07732,-2.07732 c 1.14252,-1.14252 2.07732,-2.52732 2.07732,-3.07732 0,-0.55 -0.9348,-1.93479 -2.07732,-3.07732 l -2.07732,-2.07731 -1.67268,0.72187 c -0.91998,0.39703 -2.34768,0.72187 -3.17268,0.72187 -0.825,0 -2.25271,-0.32484 -3.17268,-0.72187 l -1.67269,-0.72187 -2.07731,2.07731 c -1.14253,1.14253 -2.07732,2.52732 -2.07732,3.07732 0,0.55 0.93479,1.9348 2.07732,3.07732 l 2.07731,2.07732 1.67269,-0.72187 c 0.91997,-0.39703 2.34768,-0.72187 3.17268,-0.72187 0.825,0 2.2527,0.32484 3.17268,0.72187 z m 0.82732,-3.43277 c -0.55,0 -1,-0.45 -1,-1 0,-0.55 0.45,-1 1,-1 0.55,0 1,0.45 1,1 0,0.55 -0.45,1 -1,1 z m -8,0 c -0.55,0 -1,-0.45 -1,-1 0,-0.55 0.45,-1 1,-1 0.55,0 1,0.45 1,1 0,0.55 -0.45,1 -1,1 z"
     id="path3015"
     inkscape:connector-curvature="0" />
</svg>
